<?xml version="1.0" standalone="no"?>
<!DOCTYPE svg PUBLIC "-//W3C//DTD SVG 1.1//EN" "http://www.w3.org/Graphics/SVG/1.1/DTD/svg11.dtd" >
<svg xmlns="http://www.w3.org/2000/svg" xmlns:xlink="http://www.w3.org/1999/xlink" version="1.1">
<metadata>
Created by FontForge 20180930 at Mon Oct  8 19:31:54 2018
 By root
(c) 1999-2012 Typodermic Fonts Inc. See attached license agreement. If agreement is missing visit typodermicfonts.com for more info.
</metadata>
<defs>
<font id="LibelSuit-Regular" horiz-adv-x="362" >
  <font-face 
    font-family="Libel Suit"
    font-weight="400"
    font-stretch="normal"
    units-per-em="1000"
    panose-1="2 0 5 8 2 0 0 2 0 4"
    ascent="790"
    descent="-210"
    x-height="611"
    cap-height="783"
    bbox="-72 -182 767 987"
    underline-thickness="20"
    underline-position="-133"
    unicode-range="U+0020-2122"
  />
    <missing-glyph />
    <glyph glyph-name="copyright" unicode="&#x28;C&#x29;" horiz-adv-x="792" 
d="M26 392q0 83 29 156.5t79.5 128.5t117.5 87t144 32q76 0 144 -32t118 -87t79.5 -128.5t29.5 -156.5q0 -84 -29.5 -157.5t-79.5 -128.5t-118 -87t-144 -32q-77 0 -144 32t-117.5 87t-79.5 128.5t-29 157.5zM88 390q0 -70 24 -131.5t66 -107t98.5 -72t121.5 -26.5
q64 0 120.5 26.5t98.5 72t66.5 107t24.5 131.5t-24.5 132t-66.5 108.5t-98.5 73.5t-120.5 27q-65 0 -121.5 -27t-98.5 -73.5t-66 -108.5t-24 -132zM442 456q-23 34 -54 34q-30 0 -47.5 -27.5t-17.5 -75.5q0 -45 18.5 -72.5t47.5 -27.5q15 0 28.5 8t24.5 21l42 -32
q-31 -58 -96 -58q-26 0 -47.5 12.5t-37 34t-24.5 51t-9 63.5q0 35 8 65t23.5 52t37.5 34.5t49 12.5q67 0 99 -64z" />
    <glyph glyph-name="registered" unicode="&#x28;R&#x29;" horiz-adv-x="723" 
d="M356 748q-65 0 -116.5 -23t-87.5 -60.5t-55 -85.5t-19 -97q0 -50 19 -97.5t55 -85t87.5 -60.5t116.5 -23q62 0 116 20.5t94.5 56.5t64 84.5t23.5 104.5q0 49 -22.5 97t-62.5 85.5t-94.5 60.5t-118.5 23zM359 170q-73 0 -134 25.5t-105 69t-68.5 99.5t-24.5 118
q0 64 24.5 121t68.5 100t105 68t134 25q72 0 134 -24t107 -66t70.5 -99.5t25.5 -124.5q0 -62 -26.5 -118t-72 -99.5t-107 -69t-131.5 -25.5zM322 578v-77h55q36 0 36 37q0 40 -36 40h-55zM356 431h-34v-124h-68v340h122q47 0 76 -27.5t29 -81.5q0 -35 -13.5 -55.5
t-42.5 -40.5l61 -135h-72z" />
    <glyph glyph-name="space" unicode=" " horiz-adv-x="186" 
 />
    <glyph glyph-name="exclam" unicode="!" horiz-adv-x="169" 
d="M98 238h-29l-38 545h105zM128 52q0 -23 -11 -40.5t-34 -17.5q-22 0 -33 18.5t-11 39.5q0 23 11 41t33 18q23 0 34 -17.5t11 -41.5z" />
    <glyph glyph-name="quotedbl" unicode="&#x22;" horiz-adv-x="248" 
d="M194 542h-26l-28 254h80zM80 542h-27l-25 254h78z" />
    <glyph glyph-name="numbersign" unicode="#" horiz-adv-x="405" 
d="M388 537l-14 -71h-73l-32 -148h73l-14 -71h-73l-51 -247h-55l51 247h-63l-51 -247h-54l51 247h-64l15 71h64l31 148h-64l15 71h64l51 246h53l-51 -246h65l51 246h53l-51 -246h73zM246 466h-63l-32 -148h65z" />
    <glyph glyph-name="dollar" unicode="$" horiz-adv-x="377" 
d="M340 233q0 -33 -11 -63.5t-30.5 -53.5t-45.5 -38.5t-56 -18.5v-59h-35v60q-30 4 -55.5 19t-44 38t-29.5 53t-11 63v48l92 -22v-26q0 -56 48 -71v186q-44 24 -71 44.5t-42.5 44t-21 51t-5.5 64.5q0 34 11 64t29.5 52.5t44 37t55.5 19.5v58h35v-57q30 -5 56 -20t45.5 -37.5
t30.5 -52.5t11 -64v-48l-92 22v26q0 57 -51 72v-188q46 -27 74 -48t43.5 -43.5t20.5 -48.5t5 -63zM162 623q-48 -15 -48 -71q0 -57 48 -93v164zM248 233q0 60 -51 93v-164q51 12 51 71z" />
    <glyph glyph-name="percent" unicode="%" horiz-adv-x="521" 
d="M32 0zM489 71q0 -37 -25.5 -63t-62.5 -26q-18 0 -33.5 7t-27.5 19t-19 28.5t-7 34.5v272q0 18 7 33.5t19 27.5t27.5 19t33.5 7t34 -7t28 -19t19 -27.5t7 -33.5v-272zM430 343q0 13 -8.5 20.5t-20.5 7.5q-13 0 -21 -7.5t-8 -20.5v-272q0 -13 8 -21t21 -8q12 0 20.5 8
t8.5 21v272zM207 443q0 -37 -25.5 -63t-62.5 -26q-18 0 -33.5 7t-27.5 19t-19 28.5t-7 34.5v272q0 18 7 33.5t19 27.5t27.5 19t33.5 7t34 -7t28 -19t19 -27.5t7 -33.5v-272zM148 715q0 13 -8.5 20.5t-20.5 7.5q-13 0 -21 -7.5t-8 -20.5v-272q0 -13 8 -21t21 -8q12 0 20.5 8
t8.5 21v272zM481 783l-381 -783h-65l383 783h63z" />
    <glyph glyph-name="ampersand" unicode="&#x26;" horiz-adv-x="394" 
d="M340 74q17 0 31 15v-99q-11 -4 -34 -4q-50 0 -79 40q-43 -40 -97 -40q-26 0 -49.5 11t-41.5 31t-28.5 48t-10.5 62v169q0 58 61 94q-61 30 -61 100v144q0 69 38.5 110t98.5 41q30 0 55.5 -11.5t43.5 -31.5t28.5 -47.5t10.5 -60.5v-26l-88 -29v55q0 30 -15 47t-35 17
t-34.5 -17t-14.5 -47v-135q0 -66 90 -66h9v44l77 29v-73h76v-88h-76v-218q0 -30 13.5 -47t31.5 -17zM218 356h-9q-90 0 -90 -75v-143q0 -30 14.5 -47t34.5 -17t35 17t15 47v218z" />
    <glyph glyph-name="quotesingle" unicode="'" horiz-adv-x="124" 
d="M75 542h-27l-26 254h78z" />
    <glyph glyph-name="parenleft" unicode="(" horiz-adv-x="193" 
d="M166 -87q-29 3 -54 16t-43 33.5t-28.5 47t-10.5 56.5v652q0 30 10.5 56.5t28.5 47t43 33.5t54 16v-90q-48 -13 -48 -63v-652q0 -50 48 -63v-90z" />
    <glyph glyph-name="parenright" unicode=")" horiz-adv-x="193" 
d="M163 66q0 -30 -10.5 -56.5t-29 -47t-43.5 -33.5t-53 -16v90q48 13 48 63v652q0 49 -48 63v90q28 -3 53 -16t43.5 -33.5t29 -47t10.5 -56.5v-652z" />
    <glyph glyph-name="asterisk" unicode="*" horiz-adv-x="366" 
d="M347 498l-33 -47l-116 97l15 -152h-58l13 153l-117 -98l-32 47l137 80l-134 78l34 47l112 -96l-13 146h58l-15 -145l113 95l32 -47l-134 -78z" />
    <glyph glyph-name="plus" unicode="+" horiz-adv-x="349" 
d="M219 326v-144h-84v144h-120v86h120v141h84v-141h112v-86h-112z" />
    <glyph glyph-name="comma" unicode="," horiz-adv-x="140" 
d="M43 -171h-25l9 228q1 29 13.5 42t28.5 13q17 0 32 -15t15 -41q0 -15 -6 -31z" />
    <glyph glyph-name="hyphen" unicode="-" horiz-adv-x="320" 
d="M285 354h-252v77h252v-77z" />
    <glyph glyph-name="period" unicode="." horiz-adv-x="142" 
d="M115 52q0 -23 -11 -40.5t-33 -17.5q-23 0 -33.5 18.5t-10.5 39.5q0 23 10.5 41t33.5 18q22 0 33 -17.5t11 -41.5z" />
    <glyph glyph-name="slash" unicode="/" horiz-adv-x="334" 
d="M322 826l-257 -869h-53l261 869h49z" />
    <glyph glyph-name="zero" unicode="0" horiz-adv-x="367" 
d="M335 138q0 -32 -12 -59.5t-32.5 -48t-48 -32.5t-59.5 -12q-31 0 -58.5 12t-48.5 32.5t-33 48t-12 59.5v505q0 31 12 58.5t33 48.5t48.5 33t58.5 12q32 0 59.5 -12t48 -33t32.5 -48.5t12 -58.5v-505zM247 643q0 26 -19 45t-45 19q-27 0 -45.5 -19t-18.5 -45v-505
q0 -27 18.5 -45.5t45.5 -18.5q26 0 45 18.5t19 45.5v505z" />
    <glyph glyph-name="one" unicode="1" horiz-adv-x="199" 
d="M166 0h-88v655h-61v72q61 0 61 56h88v-783z" />
    <glyph glyph-name="two" unicode="2" horiz-adv-x="360" 
d="M334 0h-304v154q0 35 8.5 66.5t32.5 75.5q10 19 30 51.5t42.5 68t42.5 68.5t31 53q17 34 23 57.5t6 49.5t-19 45t-45 19q-27 0 -45.5 -19t-18.5 -45v-24l-88 -19v43q0 31 10 59t29.5 48.5t48 32.5t64.5 12q34 0 62.5 -12t48 -32.5t30.5 -48.5t11 -59q0 -15 -0.5 -29.5
t-4 -31t-12 -37t-23.5 -48.5q-12 -23 -28 -49.5t-33.5 -55t-36 -58.5t-35.5 -59q-21 -35 -32 -67t-11 -55v-66h216v-88z" />
    <glyph glyph-name="three" unicode="3" horiz-adv-x="361" 
d="M331 138q0 -34 -12 -62t-33 -48t-48.5 -31t-58.5 -11q-32 0 -59.5 12t-48 32.5t-32.5 48t-12 59.5v39l88 -29v-10q0 -27 18 -45.5t46 -18.5q26 0 45 18.5t19 45.5v130q0 47 -21.5 69t-78.5 22v70q56 0 74.5 19.5t18.5 69.5v126q0 26 -15.5 45t-41.5 19q-28 0 -46 -19
t-18 -45v-26h-88v26q0 37 12 65t32.5 47.5t48 29.5t59.5 10q31 0 58 -12t46.5 -32.5t30.5 -48.5t11 -59v-132q0 -50 -24.5 -77t-54.5 -37q16 -4 31 -14t27 -25.5t19.5 -36.5t7.5 -48v-136z" />
    <glyph glyph-name="four" unicode="4" horiz-adv-x="367" 
d="M343 272h-47v-272h-88v272h-195l49 352h82l-35 -263h99v422h88v-422h47v-89z" />
    <glyph glyph-name="five" unicode="5" 
d="M332 138q0 -32 -12 -59.5t-33 -48t-48.5 -32.5t-58.5 -12q-32 0 -59.5 12t-48 32.5t-32.5 48t-12 59.5v39l88 -29v-10q0 -27 18.5 -45.5t45.5 -18.5q26 0 45 18.5t19 45.5v321q0 13 -6.5 25t-16.5 21t-22.5 14.5t-25.5 5.5q-30 0 -45.5 -17t-19.5 -39l-79 22l22 292h281
v-88h-207l-9 -114q12 13 29.5 21.5t49.5 8.5q34 0 59.5 -12t42.5 -32.5t26 -48.5t9 -59v-321z" />
    <glyph glyph-name="six" unicode="6" horiz-adv-x="365" 
d="M335 138q0 -32 -12 -59.5t-32.5 -48t-48 -32.5t-59.5 -12q-31 0 -58.5 12t-48.5 32.5t-33 48t-12 59.5v506q0 31 10 59t29 48.5t47.5 32.5t65.5 12t65 -12t47.5 -32.5t29.5 -48.5t10 -59v-26h-88v26q0 26 -19 45t-45 19q-27 0 -45.5 -19t-18.5 -45v-128q10 10 27 19.5
t52 9.5q33 0 59 -12.5t43 -33.5t26 -49t9 -59v-253zM247 391q0 27 -19 46.5t-45 19.5q-29 0 -46.5 -21.5t-17.5 -50.5v-247q0 -27 18.5 -45.5t45.5 -18.5q26 0 45 18.5t19 45.5v253z" />
    <glyph glyph-name="seven" unicode="7" horiz-adv-x="323" 
d="M305 718l-161 -718h-96l174 695h-200v88h283v-65z" />
    <glyph glyph-name="eight" unicode="8" horiz-adv-x="364" 
d="M334 138q0 -32 -12 -59.5t-33 -48t-48.5 -32.5t-58.5 -12q-32 0 -60 12t-48.5 32.5t-32 48t-11.5 59.5v162q0 42 19.5 71t42.5 39q-24 9 -40 38t-16 67v129q0 72 40.5 112t105.5 40q31 0 58 -10.5t46.5 -30t30.5 -47.5t11 -64v-129q0 -38 -15.5 -66t-41.5 -39
q26 -11 44.5 -39.5t18.5 -70.5v-162zM239 644q0 26 -17 45t-40 19q-27 0 -42 -19t-15 -45v-135q0 -30 15.5 -47t42.5 -17q25 0 40.5 16.5t15.5 47.5v135zM246 306q0 29 -19.5 46t-45.5 17t-44.5 -16.5t-18.5 -46.5v-168q0 -27 18.5 -45.5t45.5 -18.5q26 0 45 18.5t19 45.5
v168z" />
    <glyph glyph-name="nine" unicode="9" horiz-adv-x="366" 
d="M334 138q0 -35 -11.5 -63.5t-31.5 -48t-48 -30t-61 -10.5q-67 0 -109.5 40.5t-42.5 111.5v26h88v-26q0 -27 18.5 -45.5t45.5 -18.5q26 0 45 18.5t19 45.5v149q-9 -7 -29 -15.5t-52 -8.5q-25 0 -49.5 10t-43.5 29.5t-30.5 47.5t-11.5 65v229q0 31 11.5 59t32 48.5
t48.5 32.5t60 12q31 0 58.5 -12t48.5 -32.5t33 -48.5t12 -59v-506zM246 644q0 26 -19 45t-45 19q-27 0 -45.5 -19t-18.5 -45v-229q0 -27 18.5 -45.5t45.5 -18.5q30 0 47 20t17 49v224z" />
    <glyph glyph-name="colon" unicode=":" horiz-adv-x="148" 
d="M118 52q0 -23 -11 -40.5t-33 -17.5q-23 0 -33.5 18.5t-10.5 39.5q0 23 10.5 41t33.5 18q22 0 33 -17.5t11 -41.5zM118 347q0 -23 -11 -40.5t-33 -17.5q-23 0 -33.5 18.5t-10.5 39.5q0 23 10.5 41t33.5 18q22 0 33 -17.5t11 -41.5z" />
    <glyph glyph-name="semicolon" unicode=";" horiz-adv-x="141" 
d="M118 347q-1 -23 -11.5 -40.5t-32.5 -17.5q-23 0 -33.5 18.5t-10.5 39.5q0 23 10.5 41t33.5 18q22 0 33 -17.5t11 -41.5zM43 -171h-25l9 228q1 29 13.5 42t28.5 13q17 0 32 -15t15 -41q0 -15 -6 -31z" />
    <glyph glyph-name="less" unicode="&#x3c;" horiz-adv-x="250" 
d="M224 126l-213 193v61l213 191v-103l-153 -118l153 -123v-101z" />
    <glyph glyph-name="equal" unicode="=" horiz-adv-x="250" 
d="M34 298h197v-74h-197v74zM34 484h197v-76h-197v76z" />
    <glyph glyph-name="greater" unicode="&#x3e;" horiz-adv-x="257" 
d="M34 227l152 123l-152 118v103l212 -191v-61l-212 -193v101z" />
    <glyph glyph-name="question" unicode="?" horiz-adv-x="340" 
d="M325 644q0 -44 -15.5 -81t-37.5 -71.5t-44.5 -69t-35.5 -73.5q-8 -23 -14 -56.5t-11 -63.5h-51q-2 16 -4 36t-2 34q0 44 10.5 81t27.5 75q10 23 25.5 45t29.5 44.5t24 46t10 49.5q0 32 -17 50t-49 18q-27 0 -46 -19t-19 -45v-24l-88 -19v43q0 33 11 61t31.5 48t48.5 31.5
t61 11.5q69 0 112 -39t43 -113zM197 52q0 -23 -11 -40.5t-33 -17.5t-33 18.5t-11 39.5q0 23 11 41t33 18t33 -17.5t11 -41.5z" />
    <glyph glyph-name="at" unicode="@" horiz-adv-x="674" 
d="M448 132q6 -27 39 -27q22 0 39.5 12.5t29.5 41.5t18.5 76t6.5 116q0 64 -14.5 116.5t-42.5 89.5t-68 57t-91 20q-65 0 -115 -27t-84.5 -75t-52.5 -115t-18 -148q0 -74 14.5 -135.5t37 -107.5t48 -75.5t48.5 -39.5l-35 -69q-31 11 -63.5 43t-59 85.5t-43.5 128t-17 170.5
q0 93 20.5 173.5t62.5 139t106 92t151 33.5q74 0 127.5 -24t88 -69.5t51 -111.5t16.5 -151q0 -154 -41.5 -234.5t-111.5 -80.5q-37 0 -60 12t-38 29q-8 -9 -24 -20.5t-48 -11.5q-24 0 -43.5 10.5t-33.5 28t-21.5 41t-7.5 50.5v176q0 27 7 50.5t20 41.5t31.5 28.5t42.5 10.5
q23 0 39.5 -9.5t21.5 -19.5v25l67 25v-371zM381 351q0 23 -14.5 39.5t-34.5 16.5t-34 -16.5t-14 -39.5v-176q0 -23 14 -39t34 -16t34.5 16t14.5 39v176z" />
    <glyph glyph-name="A" unicode="A" horiz-adv-x="361" 
d="M340 0h-89l-13 97h-111l-12 -97h-94l120 783h81zM228 179l-45 343l-46 -343h91z" />
    <glyph glyph-name="B" unicode="B" horiz-adv-x="366" 
d="M337 157q0 -70 -38.5 -113.5t-108.5 -43.5h-157v783h140q78 0 115.5 -44t37.5 -113v-109q0 -93 -64 -115q32 -10 53.5 -37t21.5 -79v-129zM121 695v-252h45q32 0 53.5 19t21.5 66v83q0 40 -15.5 62t-59.5 22h-45zM249 275q0 45 -17.5 65.5t-58.5 20.5h-52v-273h52
q39 0 57.5 20t18.5 64v103z" />
    <glyph glyph-name="C" unicode="C" 
d="M335 138q0 -36 -12 -64.5t-32.5 -48t-48 -29.5t-59.5 -10q-31 0 -58.5 10t-48.5 29.5t-33 48t-12 64.5v506q0 39 12 67.5t33 47.5t48.5 28t58.5 9q32 0 59.5 -11t48 -30.5t32.5 -48t12 -62.5v-26h-88v26q0 33 -19 48.5t-45 15.5q-27 0 -45.5 -15.5t-18.5 -48.5v-506
q0 -27 18.5 -45.5t45.5 -18.5q26 0 45 18.5t19 45.5v10l88 29v-39z" />
    <glyph glyph-name="D" unicode="D" horiz-adv-x="370" 
d="M337 153q0 -32 -10.5 -60t-30 -48.5t-48 -32.5t-63.5 -12h-152v783h152q35 0 63.5 -11.5t48 -32t30 -48.5t10.5 -61v-477zM249 630q0 31 -18.5 48t-45.5 17h-64v-607h64q27 0 45.5 19t18.5 46v477z" />
    <glyph glyph-name="E" unicode="E" horiz-adv-x="315" 
d="M292 0h-259v783h259v-88h-171v-248h99v-88h-99v-271h171v-88z" />
    <glyph glyph-name="F" unicode="F" horiz-adv-x="315" 
d="M303 695h-182v-274h115v-88h-115v-333h-88v783h270v-88z" />
    <glyph glyph-name="G" unicode="G" horiz-adv-x="374" 
d="M343 0h-59l-9 33q-16 -23 -39 -35t-60 -12q-27 0 -53 9t-46.5 28t-33 47.5t-12.5 67.5v506q0 36 12 64t33 47.5t48.5 30t58.5 10.5q32 0 59.5 -10.5t48 -30.5t32.5 -48t12 -63v-26h-88v26q0 34 -19 49t-45 15q-27 0 -45.5 -16t-18.5 -48v-506q0 -27 20.5 -45.5
t47.5 -18.5t47.5 18.5t20.5 45.5v213h-73v81h161v-432z" />
    <glyph glyph-name="H" unicode="H" horiz-adv-x="372" 
d="M337 0h-88v353h-128v-353h-88v783h88v-342h128v342h88v-783z" />
    <glyph glyph-name="I" unicode="I" horiz-adv-x="156" 
d="M121 0h-88v783h88v-783z" />
    <glyph glyph-name="J" unicode="J" horiz-adv-x="350" 
d="M317 146q0 -44 -12 -74.5t-32.5 -49.5t-48.5 -27.5t-59 -8.5q-35 0 -63 12t-48 32.5t-31 48t-11 59.5v39l88 -29v-10q0 -27 15.5 -45.5t49.5 -18.5q27 0 45.5 16t18.5 57v636h88v-637z" />
    <glyph glyph-name="K" unicode="K" horiz-adv-x="392" 
d="M373 0h-104l-148 398v-398h-88v783h88v-266l147 266h105l-184 -315z" />
    <glyph glyph-name="L" unicode="L" horiz-adv-x="284" 
d="M272 0h-239v783h88v-695h151v-88z" />
    <glyph glyph-name="M" unicode="M" horiz-adv-x="509" 
d="M476 0h-81v441l-103 -441h-75l-102 441v-441h-82v783h107l119 -579l129 579h88v-783z" />
    <glyph glyph-name="N" unicode="N" horiz-adv-x="372" 
d="M337 0h-78l-143 477v-477h-83v783h88l134 -483v483h82v-783z" />
    <glyph glyph-name="O" unicode="O" horiz-adv-x="367" 
d="M335 138q0 -34 -12 -62t-32.5 -48t-48 -31t-59.5 -11q-31 0 -58.5 11t-48.5 31t-33 48t-12 62v506q0 36 12 64t33 47.5t48.5 30t58.5 10.5q32 0 59.5 -10.5t48 -30t32.5 -47.5t12 -64v-506zM247 644q0 30 -19 47t-45 17q-27 0 -45.5 -17t-18.5 -47v-506q0 -31 18.5 -47.5
t45.5 -16.5q26 0 45 16.5t19 47.5v506z" />
    <glyph glyph-name="P" unicode="P" horiz-adv-x="353" 
d="M337 483q0 -32 -9 -61t-27 -51t-45.5 -34.5t-65.5 -12.5h-69v-324h-88v783h157q72 0 109.5 -42.5t37.5 -114.5v-143zM249 611q0 47 -17 65.5t-59 18.5h-52v-282h52q36 0 56 18.5t20 66.5v113z" />
    <glyph glyph-name="Q" unicode="Q" horiz-adv-x="390" 
d="M364 -10l-59 -58l-64 66q-29 -12 -60 -12t-58.5 10t-48.5 29.5t-33 48t-12 64.5v506q0 31 12 59t33 48.5t48.5 32.5t58.5 12q32 0 60 -12t48.5 -32.5t32 -48.5t11.5 -59v-506q0 -50 -28 -88zM245 644q0 32 -19 48t-45 16q-27 0 -45.5 -16t-18.5 -48v-509
q0 -30 18.5 -46.5t45.5 -16.5q26 0 45 16t19 47v509z" />
    <glyph glyph-name="R" unicode="R" horiz-adv-x="369" 
d="M337 0h-88v276q0 27 -4 44t-13 26t-23.5 12.5t-35.5 3.5h-52v-362h-88v783h152q72 0 109.5 -39.5t37.5 -117.5v-108q0 -42 -19 -68.5t-51 -37.5q31 -10 53 -40t22 -85v-287zM244 611q0 42 -14.5 63t-62.5 21h-46v-252h46q40 0 58.5 19t18.5 66v83z" />
    <glyph glyph-name="S" unicode="S" horiz-adv-x="365" 
d="M179 796q66 0 109 -38t43 -114v-43l-88 19v24q0 26 -19 45t-45 19q-20 0 -32.5 -8t-20 -20.5t-10 -28t-2.5 -31.5q0 -24 10.5 -49.5t26.5 -50.5t35 -49t35 -45q21 -28 42 -58t37.5 -61.5t27 -65.5t10.5 -71q0 -36 -8.5 -69.5t-28 -59t-50 -40.5t-73.5 -15q-35 0 -62.5 12
t-47.5 32.5t-30.5 48t-10.5 59.5v42l88 -19v-23q0 -27 20.5 -46t46.5 -19q35 0 52 21.5t17 53.5q0 26 -3 46t-11 40q-12 31 -29 59t-36.5 55t-40 53.5t-39.5 52.5q-30 42 -47.5 82t-17.5 100q0 72 39 116t113 44z" />
    <glyph glyph-name="T" unicode="T" horiz-adv-x="288" 
d="M278 695h-91v-695h-88v695h-89v88h268v-88z" />
    <glyph glyph-name="U" unicode="U" horiz-adv-x="370" 
d="M336 138q0 -35 -12 -63t-32.5 -48t-48 -30.5t-59.5 -10.5q-31 0 -58.5 10.5t-48.5 30.5t-33 48t-12 63v645h88v-645q0 -34 18.5 -49t45.5 -15q26 0 45 15t19 49v645h88v-645z" />
    <glyph glyph-name="V" unicode="V" horiz-adv-x="325" 
d="M315 783l-113 -783h-82l-110 783h101l57 -524l57 524h90z" />
    <glyph glyph-name="W" unicode="W" horiz-adv-x="514" 
d="M504 783l-103 -783h-81l-64 488l-64 -488h-82l-100 783h101l47 -490l67 490h76l66 -490l47 490h90z" />
    <glyph glyph-name="X" unicode="X" horiz-adv-x="399" 
d="M148 395l-115 388h100l71 -265l65 265h96l-115 -382l120 -401h-101l-73 283l-71 -283h-96z" />
    <glyph glyph-name="Y" unicode="Y" horiz-adv-x="370" 
d="M351 783l-126 -413v-370h-89v366l-126 417h100l73 -281l73 281h95z" />
    <glyph glyph-name="Z" unicode="Z" horiz-adv-x="361" 
d="M332 0h-304v69l203 619h-199v95h300v-69l-200 -619h200v-95z" />
    <glyph glyph-name="bracketleft" unicode="[" horiz-adv-x="246" 
d="M90 862h143v-60h-80v-815h80v-62h-143v937z" />
    <glyph glyph-name="backslash" unicode="\" horiz-adv-x="334" 
d="M61 826l261 -869h-53l-257 869h49z" />
    <glyph glyph-name="bracketright" unicode="]" horiz-adv-x="246" 
d="M163 -75h-143v62h80v815h-80v60h143v-937z" />
    <glyph glyph-name="asciicircum" unicode="^" horiz-adv-x="332" 
d="M304 531l-138 138l-139 -138v99l139 138l138 -138v-99z" />
    <glyph glyph-name="underscore" unicode="_" horiz-adv-x="425" 
d="M420 -74h-410v60h410v-60z" />
    <glyph glyph-name="grave" unicode="`" horiz-adv-x="294" 
d="M59 815h83l93 -158h-54z" />
    <glyph glyph-name="a" unicode="a" 
d="M330 0h-58l-20 35q-11 -20 -34 -34.5t-61 -14.5q-24 0 -48 9t-43 28.5t-30.5 49.5t-11.5 73q0 45 12 79.5t31 61.5t43 48.5t48 39t46 33.5t38 33v30q0 29 -12.5 47t-39.5 18q-51 0 -65 -41l-74 48q10 15 21.5 29t28 24.5t38.5 16.5t52 6q63 0 101 -39t38 -109v-471z
M244 327q-17 -11 -40 -26.5t-44 -37t-35.5 -48.5t-14.5 -61q0 -38 17 -59t49 -21q35 0 51.5 24t16.5 56v173z" />
    <glyph glyph-name="b" unicode="b" horiz-adv-x="373" 
d="M343 148q0 -32 -10 -61t-28.5 -51.5t-45 -36t-60.5 -13.5q-38 0 -59.5 15.5t-31.5 27.5l-20 -29h-58v786l88 29v-224q11 13 31.5 20.5t49.5 7.5q63 0 103.5 -38.5t40.5 -109.5v-323zM186 536q-27 0 -47.5 -16.5t-20.5 -48.5v-323q0 -38 20 -56t47 -18t48.5 15.5
t21.5 58.5v323q0 33 -21 49t-48 16z" />
    <glyph glyph-name="c" unicode="c" horiz-adv-x="361" 
d="M182 536q-27 0 -45.5 -16.5t-18.5 -48.5v-333q0 -31 18.5 -47.5t45.5 -16.5q26 0 45 16t19 48v10l88 29v-39q0 -39 -12 -67.5t-33 -47t-48.5 -28t-58.5 -9.5q-32 0 -60 10t-48.5 29.5t-32 47.5t-11.5 65v333q0 41 11.5 69t32 45.5t48.5 25.5t60 8q31 0 58.5 -8t48.5 -26
t33 -46t12 -68v-26h-88v26q0 32 -19 48.5t-45 16.5z" />
    <glyph glyph-name="d" unicode="d" horiz-adv-x="360" 
d="M326 0h-59l-20 29q-5 -14 -29 -28.5t-66 -14.5q-61 0 -96 43t-35 116v326q0 68 34.5 108t99.5 40q32 0 53 -8.5t29 -20.5v196l89 29v-815zM237 471q0 32 -18.5 48.5t-44.5 16.5q-28 0 -46.5 -16t-18.5 -49v-333q0 -32 18.5 -48t46.5 -16q26 0 44.5 16t18.5 48v333z" />
    <glyph glyph-name="e" unicode="e" 
d="M328 138q0 -36 -11.5 -64.5t-31.5 -48t-47.5 -29.5t-58.5 -10q-32 0 -59 10t-47 29.5t-31.5 48t-11.5 64.5v333q0 36 11.5 63.5t32 46.5t48.5 28.5t60 9.5q31 0 58.5 -10.5t48.5 -31t33 -50t12 -68.5q0 -62 -12.5 -104t-38.5 -74t-67 -58t-98 -55v-30q0 -31 16.5 -47.5
t44.5 -16.5q26 0 43 16.5t17 47.5v10l89 29v-39zM246 454q0 46 -19 64t-45 18q-27 0 -45.5 -16.5t-18.5 -48.5v-206q40 19 65 37.5t39 40.5t19 49t5 62z" />
    <glyph glyph-name="f" unicode="f" horiz-adv-x="294" 
d="M214 815q36 0 70 -14l-35 -85q-14 11 -35 11q-27 0 -46 -16t-19 -48v-52h65v-78h-65v-533h-88v533h-39v78h39v52q0 36 12 64.5t33 48t49 29.5t59 10z" />
    <glyph glyph-name="g" unicode="g" horiz-adv-x="424" 
d="M361 537v-240q0 -63 -33 -100t-109 -44q-35 -3 -45 -16t-10 -27q0 -9 6.5 -20.5t21.5 -13.5h191l-49 -88h-179q-53 0 -53 -36q0 -19 13.5 -27.5t33.5 -8.5h161l-48 -87h-115q-63 0 -97 33t-34 89q0 45 26.5 76t74.5 43q-16 5 -23 17t-7 27q0 14 11.5 28.5t37.5 20.5
q-80 41 -80 134v174q0 69 39.5 108.5t107.5 39.5q35 0 58 -4.5t34 -10.5h109zM274 473q0 34 -20 49.5t-46 15.5q-27 0 -46.5 -15.5t-19.5 -49.5v-178q0 -32 19.5 -48t46.5 -16q26 0 46 16t20 48v178z" />
    <glyph glyph-name="h" unicode="h" horiz-adv-x="372" 
d="M343 0h-88v471q0 35 -21 50t-48 15t-47.5 -15t-20.5 -50v-471h-88v786l88 29v-219q13 13 34.5 18t47.5 5q29 0 55 -10t45.5 -28.5t31 -46t11.5 -63.5v-471z" />
    <glyph glyph-name="i" unicode="i" horiz-adv-x="150" 
d="M121 761q-1 -23 -13 -39t-32 -16t-33 16t-13 39q0 21 13 37.5t33 16.5t32.5 -16t12.5 -38zM118 0h-88v611h88v-611z" />
    <glyph glyph-name="j" unicode="j" horiz-adv-x="175" 
d="M141 -29q0 -32 -11 -59.5t-30.5 -48.5t-48 -33t-62.5 -12q-36 0 -61 12l23 89q16 -13 38 -13q27 0 45.5 16.5t18.5 48.5v640h88v-640zM145 761q0 -23 -13 -39t-33 -16t-33 16t-13 39q0 21 13 37.5t33 16.5t33 -16t13 -38z" />
    <glyph glyph-name="k" unicode="k" horiz-adv-x="364" 
d="M351 0h-102l-128 326v-326h-88v786l88 29v-385l115 181h97l-146 -228z" />
    <glyph glyph-name="l" unicode="l" horiz-adv-x="156" 
d="M121 0h-88v786l88 29v-815z" />
    <glyph glyph-name="m" unicode="m" horiz-adv-x="561" 
d="M528 0h-88v471q0 32 -15.5 48.5t-42.5 16.5t-42 -16.5t-15 -48.5v-471h-89v471q0 32 -15.5 48.5t-41.5 16.5q-58 0 -58 -65v-471h-88v611h58l20 -29q26 37 78 37q40 0 62 -16t31 -44q14 29 38.5 44.5t77.5 15.5q27 0 50.5 -10.5t41 -29.5t28 -46t10.5 -60v-473z" />
    <glyph glyph-name="n" unicode="n" horiz-adv-x="380" 
d="M347 0h-88v471q0 32 -21 48.5t-48 16.5q-26 0 -47.5 -16.5t-21.5 -48.5v-471h-88v611h58l20 -29q15 17 37 27t59 10q63 0 101.5 -39.5t38.5 -105.5v-474z" />
    <glyph glyph-name="o" unicode="o" horiz-adv-x="365" 
d="M334 138q0 -35 -12 -63.5t-33 -48t-48.5 -30t-58.5 -10.5q-32 0 -60 10.5t-48.5 30t-32 48t-11.5 63.5v333q0 34 11.5 61.5t32 47t48.5 29.5t60 10q31 0 58.5 -10t48.5 -29.5t33 -47t12 -61.5v-333zM246 471q0 32 -19 48.5t-45 16.5q-27 0 -45.5 -16.5t-18.5 -48.5v-333
q0 -31 18.5 -47.5t45.5 -16.5q26 0 45 16.5t19 47.5v333z" />
    <glyph glyph-name="p" unicode="p" horiz-adv-x="360" 
d="M337 138q0 -40 -11 -68.5t-29.5 -47t-42.5 -27.5t-49 -9q-30 0 -50 9.5t-34 24.5v-191h-88v782h58l20 -29q14 14 35.5 25.5t54.5 11.5q66 0 101 -39.5t35 -107.5v-334zM249 471q0 30 -18.5 47.5t-45.5 17.5t-45.5 -17.5t-18.5 -47.5v-333q0 -32 18.5 -48t45.5 -16
t45.5 16t18.5 48v333z" />
    <glyph glyph-name="q" unicode="q" horiz-adv-x="360" 
d="M326 -171h-89v191q-3 -6 -11.5 -12t-19 -11t-23 -8t-22.5 -3q-73 0 -106.5 43t-33.5 109v333q0 36 12 63.5t32 46t46 28.5t54 10q33 0 52 -11.5t30 -25.5l20 29h59v-782zM237 471q0 32 -18.5 48.5t-44.5 16.5q-28 0 -46.5 -16.5t-18.5 -48.5v-333q0 -29 18.5 -46.5
t46.5 -17.5q26 0 44.5 17t18.5 47v333z" />
    <glyph glyph-name="r" unicode="r" horiz-adv-x="241" 
d="M185 619q35 0 52 -17l-30 -79q-7 8 -27 8q-23 0 -41 -19.5t-18 -49.5v-462h-88v611h58l20 -39q8 16 26.5 31.5t47.5 15.5z" />
    <glyph glyph-name="s" unicode="s" horiz-adv-x="363" 
d="M338 154q0 -33 -9.5 -63t-29 -53.5t-49 -37.5t-70.5 -14q-34 0 -62 11t-48.5 31t-31.5 48t-11 62v42l88 -19v-23q0 -29 18 -46.5t47 -17.5q68 0 68 64q0 24 -6 40.5t-17 30.5q-16 18 -34 33t-36.5 30t-36.5 31t-34 35q-22 26 -35.5 58t-13.5 74q0 33 11 60.5t31 47
t47.5 30.5t60.5 11q69 0 106 -41t37 -107v-42l-86 20v22q0 30 -16.5 47.5t-43.5 17.5q-28 0 -43.5 -18t-15.5 -49q0 -35 22 -63t53 -54t63.5 -53.5t53.5 -61.5q11 -18 17 -39.5t6 -43.5z" />
    <glyph glyph-name="t" unicode="t" horiz-adv-x="326" 
d="M209 74q28 0 40 20l61 -66q-17 -20 -44 -31t-53 -11q-69 0 -103 38.5t-34 112.5v396h-56v78h56v111l88 30v-141h116v-78h-116v-396q0 -63 45 -63z" />
    <glyph glyph-name="u" unicode="u" horiz-adv-x="366" 
d="M332 0h-58l-20 29q-9 -13 -29.5 -28t-63.5 -15q-60 0 -94.5 42t-34.5 120v463h88v-473q0 -31 17.5 -47.5t44.5 -16.5q26 0 44 15.5t18 48.5v473h88v-611z" />
    <glyph glyph-name="v" unicode="v" horiz-adv-x="325" 
d="M315 611l-113 -611h-82l-110 611h100l57 -384l57 384h91z" />
    <glyph glyph-name="w" unicode="w" horiz-adv-x="514" 
d="M504 611l-108 -611h-81l-59 364l-60 -364h-81l-105 611h98l47 -386l67 386h75l67 -386l47 386h93z" />
    <glyph glyph-name="x" unicode="x" horiz-adv-x="398" 
d="M370 0h-102l-73 214l-71 -214h-95l124 319l-114 292h100l63 -190l62 190h94l-113 -298z" />
    <glyph glyph-name="y" unicode="y" horiz-adv-x="361" 
d="M327 -171h-89v190q-7 -11 -24.5 -22t-55.5 -11q-25 0 -49.5 8t-43.5 25.5t-31 45.5t-12 69v477h88v-473q0 -32 18.5 -48t46.5 -16q26 0 44.5 16t18.5 48v473h89v-782z" />
    <glyph glyph-name="z" unicode="z" horiz-adv-x="347" 
d="M315 0h-283v69l187 448h-184v94h280v-69l-183 -448h183v-94z" />
    <glyph glyph-name="braceleft" unicode="{" horiz-adv-x="273" 
d="M242 819q-48 0 -74.5 -29t-26.5 -86v-150q0 -33 -2.5 -59t-11.5 -44t-26 -29t-46 -15v-1q29 -5 46 -17t26 -31t11.5 -43.5t2.5 -53.5v-116q0 -45 5.5 -75t18 -48t33.5 -26t51 -8h9v-63h-8q-31 0 -61.5 7t-54.5 27.5t-39 56t-15 92.5v150q0 33 -2.5 55t-9 35.5t-18 20
t-30.5 7.5v63q21 2 33 10t18 23t7.5 36t1.5 50v161q0 45 15 75.5t39 49.5t54 27.5t60 8.5h10v-61h-16z" />
    <glyph glyph-name="bar" unicode="|" horiz-adv-x="175" 
d="M56 841h63v-924h-63v924z" />
    <glyph glyph-name="braceright" unicode="}" horiz-adv-x="273" 
d="M16 819v61h10q30 0 60 -8.5t54 -27.5t39 -49.5t15 -75.5v-161q0 -29 1.5 -50t7.5 -36t18 -23t33 -10v-63q-19 -1 -30.5 -7.5t-18 -20t-9 -35.5t-2.5 -55v-150q0 -57 -15 -92.5t-39 -56t-54.5 -27.5t-61.5 -7h-8v63h9q30 0 51 8t33.5 26t18 48t5.5 75v116q0 29 2.5 53.5
t11.5 43.5t26 31t46 17v1q-29 4 -46 15t-26 29t-11.5 44t-2.5 59v150q0 57 -26.5 86t-74.5 29h-16z" />
    <glyph glyph-name="asciitilde" unicode="~" horiz-adv-x="344" 
d="M23 380q13 30 32 47t42 17q24 0 43 -9.5t35.5 -21t32.5 -21t33 -9.5q28 0 46 25.5t34 66.5v-112q-17 -37 -37 -51t-49 -14q-15 0 -32 9.5t-34.5 20.5t-35 20.5t-33.5 9.5q-25 0 -43.5 -27.5t-33.5 -62.5v112z" />
    <glyph glyph-name="uni00A0" unicode="&#xa0;" horiz-adv-x="545" 
 />
    <glyph glyph-name="exclamdown" unicode="&#xa1;" horiz-adv-x="169" 
d="M11 0zM49.0059 545.015h28.998l37.998 -544.967h-104.994zM19.0078 731.003q0 22.999 10.999 40.498q11 17.499 33.998 17.499q21.999 0 32.998 -18.499t10.999 -39.498q0 -22.998 -10.999 -40.9971t-32.998 -17.999q-22.998 0 -33.998 17.499
q-10.999 17.499 -10.999 41.4971z" />
    <glyph glyph-name="cent" unicode="&#xa2;" horiz-adv-x="340" 
d="M193 3h-34v122q-29 2 -54.5 15t-44.5 33.5t-30 47t-11 56.5v194q0 34 11 61.5t30 47t44.5 30.5t54.5 13v159h34v-161q27 -3 51 -15t41.5 -31.5t28 -45.5t10.5 -58v-26h-89v26q0 21 -11.5 37.5t-30.5 22.5v-314q19 6 30.5 22.5t11.5 37.5v10l89 30v-40q0 -28 -10.5 -53.5
t-28 -46t-41.5 -34t-51 -17.5v-123zM107 277q0 -23 14.5 -40.5t37.5 -21.5v320q-23 -5 -37.5 -23t-14.5 -41v-194z" />
    <glyph glyph-name="sterling" unicode="&#xa3;" horiz-adv-x="391" 
d="M278 354h-128v-266h209v-88h-297v354h-36v77h36v213q0 31 12 59t33 48.5t49 32.5t59 12t59 -12t48.5 -32.5t32.5 -48.5t12 -59v-26h-88v26q0 26 -19 45t-45 19q-27 0 -46 -19t-19 -45v-213h128v-77z" />
    <glyph glyph-name="yen" unicode="&#xa5;" horiz-adv-x="313" 
d="M268 278h-69v-278h-94v278h-74v77h71l-85 428h107l37 -314l37 314h95l-88 -428h63v-77z" />
    <glyph glyph-name="brokenbar" unicode="&#xa6;" horiz-adv-x="175" 
d="M56 309h63v-392h-63v392zM119 469h-63v372h63v-372z" />
    <glyph glyph-name="section" unicode="&#xa7;" horiz-adv-x="313" 
d="M150 797q63 0 90.5 -34t27.5 -105v-50h-82v41q0 44 -10 56.5t-26 12.5q-18 0 -26.5 -12.5t-8.5 -56.5q0 -36 12 -56t30.5 -32.5t40 -23t40 -28t30.5 -47t12 -80.5q0 -45 -11.5 -79t-34.5 -51q22 -23 34 -53t12 -78q0 -152 -126 -152q-125 0 -125 141v48h85v-39
q0 -45 11 -57.5t29 -12.5q19 0 29.5 12.5t10.5 57.5q0 26 -5.5 44t-15 30t-23 21t-29.5 17q-38 16 -62.5 51.5t-24.5 103.5q0 59 13.5 88t34.5 44q-22 20 -35 50.5t-13 79.5q0 69 26 109t90 40zM157 463q-9 0 -16.5 -2.5t-12 -10t-7 -21.5t-2.5 -37v-18q0 -22 3 -35.5t8 -21
t12.5 -10t15.5 -2.5q9 0 15.5 2.5t11 10t7 21t2.5 35.5v18q0 23 -2.5 37t-7 21.5t-11.5 10t-16 2.5z" />
    <glyph glyph-name="dieresis" unicode="&#xa8;" horiz-adv-x="356" 
d="M150 761q-1 -23 -13 -39t-32 -16t-33 16t-13 39q0 21 13 37.5t33 16.5t32.5 -16t12.5 -38zM297 761q-1 -23 -13 -39t-32 -16t-33 16t-13 39q0 21 13 37.5t33 16.5t32.5 -16t12.5 -38z" />
    <glyph glyph-name="ordfeminine" unicode="&#xaa;" horiz-adv-x="225" 
d="M202 392h-35l-12 22q-7 -13 -20 -20t-36 -7q-14 0 -28.5 6t-26 17t-19 27t-7.5 36q0 43 15.5 71t36.5 48t43 35t36 30v18q0 16 -8 27t-23 11q-31 0 -38 -26l-45 30q8 18 29.5 33.5t53.5 15.5q38 0 61 -26.5t23 -64.5v-283zM149 588q-10 -6 -23.5 -15.5t-25.5 -23
t-20.5 -31t-8.5 -39.5q0 -16 11 -27.5t28 -11.5t28 14t11 30v104z" />
    <glyph glyph-name="guillemotleft" unicode="&#xab;" horiz-adv-x="359" 
d="M34 261zM83 417l72 -62v-94l-121 122v65l121 127v-97zM253 417l72 -62v-94l-121 122v65l121 127v-97z" />
    <glyph glyph-name="logicalnot" unicode="&#xac;" horiz-adv-x="349" 
d="M331 182h-84v144h-232v86h316v-230z" />
    <glyph glyph-name="macron" unicode="&#xaf;" horiz-adv-x="427" 
d="M371 700h-312v67h312v-67z" />
    <glyph glyph-name="degree" unicode="&#xb0;" horiz-adv-x="307" 
d="M153 762q-41 0 -58 -26.5t-17 -64.5q0 -43 16.5 -67.5t58.5 -24.5q77 0 77 92q0 38 -17.5 64.5t-59.5 26.5zM153 805q69 0 97.5 -35.5t28.5 -98.5q0 -29 -6.5 -54t-21 -43.5t-38.5 -29t-60 -10.5t-60.5 11t-38.5 29.5t-20 43.5t-6 53q0 31 6 55.5t20.5 42t38.5 27t60 9.5
z" />
    <glyph glyph-name="plusminus" unicode="&#xb1;" horiz-adv-x="433" 
d="M260 326v-122h-83v122h-110v86h110v120h83v-120h102v-86h-102zM412 0h-390v73h390v-73z" />
    <glyph glyph-name="twosuperior" unicode="&#xb2;" horiz-adv-x="237" 
d="M31 362zM206 362h-175v88q0 20 4 38t18 43q24 43 42 72t29.5 48.5t17.5 34t6 29.5q0 13 -9 20.5t-20 7.5q-29 0 -29 -28v-18l-59 -11v29q0 37 22.5 62.5t65.5 25.5q40 0 63.5 -25.5t23.5 -62.5q0 -17 -3 -33.5t-20 -47.5q-10 -18 -25.5 -44t-30.5 -52.5t-26 -50.5
t-11 -37v-28h116v-60z" />
    <glyph glyph-name="threesuperior" unicode="&#xb3;" horiz-adv-x="237" 
d="M29 354zM204 443q0 -41 -26 -65t-61 -24q-37 0 -62.5 26t-25.5 63v29l59 -20v-9q0 -13 7.5 -21t21.5 -8q12 0 20.5 8t8.5 21v69q0 23 -11.5 33t-42.5 10v50q31 0 40.5 9.5t9.5 32.5v68q0 28 -25 28q-29 0 -29 -28v-20h-59v20q0 43 25.5 65.5t62.5 22.5q36 0 60 -25.5
t24 -62.5v-72q0 -23 -9 -37.5t-22 -22.5q14 -8 24 -25t10 -42v-73z" />
    <glyph glyph-name="acute" unicode="&#xb4;" horiz-adv-x="294" 
d="M114 657h-55l93 158h83z" />
    <glyph glyph-name="paragraph" unicode="&#xb6;" horiz-adv-x="469" 
d="M394 691v-811h-84v817h-91v-817h-85v679q-26 1 -47 11t-35 25.5t-21.5 34t-7.5 38.5q0 24 8.5 45t27 36.5t47 24.5t68.5 9h268z" />
    <glyph glyph-name="periodcentered" unicode="&#xb7;" horiz-adv-x="142" 
d="M27 316zM115 374q0 -23 -11 -40.5t-33 -17.5q-23 0 -33.5 18.5t-10.5 39.5q0 23 10.5 41t33.5 18q22 0 33 -17.5t11 -41.5z" />
    <glyph glyph-name="cedilla" unicode="&#xb8;" horiz-adv-x="192" 
d="M96 -171h-37l5 105q1 23 11 33t21 10q14 0 25.5 -7.5t11.5 -27.5q0 -22 -9 -43z" />
    <glyph glyph-name="onesuperior" unicode="&#xb9;" horiz-adv-x="148" 
d="M23 362zM115 362h-59v353h-33v51q33 0 33 29h59v-433z" />
    <glyph glyph-name="ordmasculine" unicode="&#xba;" horiz-adv-x="227" 
d="M205 475q0 -19 -7.5 -35.5t-20 -29t-29 -19.5t-34.5 -7q-39 0 -65.5 26.5t-26.5 64.5v200q0 19 7 35.5t19.5 29t29 19.5t36.5 7q18 0 34.5 -7t29 -19.5t20 -29t7.5 -35.5v-200zM152 675q0 16 -11.5 27t-26.5 11q-17 0 -28 -11t-11 -27v-200q0 -17 11 -27.5t28 -10.5
q15 0 26.5 10.5t11.5 27.5v200z" />
    <glyph glyph-name="guillemotright" unicode="&#xbb;" horiz-adv-x="359" 
d="M34 261zM34 478v97l121 -127v-65l-121 -122v94l72 62zM204 478v97l121 -127v-65l-121 -122v94l72 62z" />
    <glyph glyph-name="onequarter" unicode="&#xbc;" horiz-adv-x="512" 
d="M31 0zM480 137h-25v-147h-59v147h-106l27 201h56l-19 -142h42v227h59v-227h25v-59zM164 362h-59v353h-33v51q33 0 33 29h59v-433zM477 783l-381 -783h-65l383 783h63z" />
    <glyph glyph-name="onehalf" unicode="&#xbd;" horiz-adv-x="534" 
d="M31 0zM503 -10h-175v88q0 20 4 38t18 43q24 43 42 72t29.5 48.5t17.5 34t6 29.5q0 13 -9 20.5t-20 7.5q-29 0 -29 -28v-18l-59 -11v29q0 37 22.5 62.5t65.5 25.5q40 0 63.5 -25.5t23.5 -62.5q0 -17 -3 -33.5t-20 -47.5q-10 -18 -25.5 -44t-30.5 -52.5t-26 -50.5t-11 -37
v-28h116v-60zM165 362h-59v353h-33v51q33 0 33 29h59v-433zM477 783l-381 -783h-65l383 783h63z" />
    <glyph glyph-name="threequarters" unicode="&#xbe;" horiz-adv-x="513" 
d="M31 0zM478 137h-25v-147h-59v147h-106l27 201h56l-19 -142h42v227h59v-227h25v-59zM206 443q0 -41 -26 -65t-61 -24q-37 0 -62.5 26t-25.5 63v29l59 -20v-9q0 -13 7.5 -21t21.5 -8q12 0 20.5 8t8.5 21v69q0 23 -11.5 33t-42.5 10v50q31 0 40.5 9.5t9.5 32.5v68
q0 28 -25 28q-29 0 -29 -28v-20h-59v20q0 43 25.5 65.5t62.5 22.5q36 0 60 -25.5t24 -62.5v-72q0 -23 -9 -37.5t-22 -22.5q14 -8 24 -25t10 -42v-73zM482 783l-381 -783h-65l383 783h63z" />
    <glyph glyph-name="questiondown" unicode="&#xbf;" horiz-adv-x="340" 
d="M0 0zM-2.98047 143.039q0 43.998 15.499 80.9951q15.499 36.998 37.498 71.4961t44.4971 68.9951q22.499 34.498 35.498 73.4961q8 22.998 13.999 56.4961q6 33.498 10.999 63.4961h50.9971q2 -15.999 4 -35.9971q2 -19.999 2 -33.998q0 -43.998 -10.499 -80.9951
q-10.5 -36.998 -27.499 -74.9961q-9.99902 -22.998 -25.498 -44.9971q-15.499 -21.998 -29.498 -44.4971t-23.999 -45.9971q-9.99902 -23.499 -9.99902 -49.4971q0 -31.998 16.999 -49.9971t48.9971 -17.999q26.998 0 45.9971 18.999t18.999 44.9971v23.999l87.9941 18.999
v-42.998q0 -32.998 -10.999 -60.9961q-11 -27.998 -31.498 -47.9971q-20.499 -19.999 -48.4971 -31.498t-60.9961 -11.499q-68.9961 0 -111.993 38.9971q-42.998 38.998 -42.998 112.993zM125.012 735.003q0 22.999 11 40.498q10.999 17.499 32.998 17.499
q21.998 0 32.998 -18.499q10.999 -18.499 10.999 -39.498q0 -22.998 -10.999 -40.9971q-11 -17.999 -32.998 -17.999q-21.999 0 -32.998 17.499q-11 17.499 -11 41.4971z" />
    <glyph glyph-name="Agrave" unicode="&#xc0;" horiz-adv-x="361" 
d="M21 0zM340 0h-89l-13 97h-111l-12 -97h-94l120 783h81zM228 179l-45 343l-46 -343h91zM63 987h83l93 -158h-54z" />
    <glyph glyph-name="Aacute" unicode="&#xc1;" horiz-adv-x="361" 
d="M21 0zM340 0h-89l-13 97h-111l-12 -97h-94l120 783h81zM228 179l-45 343l-46 -343h91zM177 829h-55l93 158h83z" />
    <glyph glyph-name="Acircumflex" unicode="&#xc2;" horiz-adv-x="361" 
d="M21 0zM340 0h-89l-13 97h-111l-12 -97h-94l120 783h81zM228 179l-45 343l-46 -343h91zM182 936l-66 -107h-83l109 158h79l111 -158h-84z" />
    <glyph glyph-name="Atilde" unicode="&#xc3;" horiz-adv-x="361" 
d="M21 0zM340 0h-89l-13 97h-111l-12 -97h-94l120 783h81zM228 179l-45 343l-46 -343h91zM340 932q-11 -32 -38 -50t-55 -18q-21 0 -37 5.5t-29 11.5t-25.5 11.5t-26.5 5.5q-19 0 -35 -8t-33 -33l-39 37q20 37 43.5 51.5t53.5 14.5q23 0 38 -5t27.5 -11t25.5 -11t32 -5
q17 0 30.5 7.5t24.5 30.5z" />
    <glyph glyph-name="Adieresis" unicode="&#xc4;" horiz-adv-x="361" 
d="M21 0zM340 0h-89l-13 97h-111l-12 -97h-94l120 783h81zM228 179l-45 343l-46 -343h91zM152 933q-1 -23 -13 -39t-32 -16t-33 16t-13 39q0 21 13 37.5t33 16.5t32.5 -16t12.5 -38zM299 933q-1 -23 -13 -39t-32 -16t-33 16t-13 39q0 21 13 37.5t33 16.5t32.5 -16t12.5 -38z
" />
    <glyph glyph-name="Aring" unicode="&#xc5;" horiz-adv-x="361" 
d="M21 0zM180 829q-32 0 -54 22.5t-22 57.5t22 56.5t54 21.5q33 0 55 -21.5t22 -56.5t-22 -57.5t-55 -22.5zM180 865q18 0 30 12t12 32q0 18 -12 30t-30 12q-17 0 -29 -12t-12 -30q0 -20 12 -32t29 -12zM340 0h-89l-13 97h-111l-12 -97h-94l120 783h81zM228 179l-45 343
l-46 -343h91z" />
    <glyph glyph-name="AE" unicode="&#xc6;" horiz-adv-x="463" 
d="M434 0h-203v97h-101l-11 -97h-96l113 783h298v-88h-114v-258h82v-88h-82v-260h114v-89zM231 187v508h-25l-67 -508h92z" />
    <glyph glyph-name="Ccedilla" unicode="&#xc7;" 
d="M31 0zM335 138q0 -36 -12 -64.5t-32.5 -48t-48 -29.5t-59.5 -10q-31 0 -58.5 10t-48.5 29.5t-33 48t-12 64.5v506q0 39 12 67.5t33 47.5t48.5 28t58.5 9q32 0 59.5 -11t48 -30.5t32.5 -48t12 -62.5v-26h-88v26q0 33 -19 48.5t-45 15.5q-27 0 -45.5 -15.5t-18.5 -48.5
v-506q0 -27 18.5 -45.5t45.5 -18.5q26 0 45 18.5t19 45.5v10l88 29v-39zM181 -171h-37l5 105q1 23 11 33t21 10q14 0 25.5 -7.5t11.5 -27.5q0 -22 -9 -43z" />
    <glyph glyph-name="Egrave" unicode="&#xc8;" horiz-adv-x="315" 
d="M33 0zM292 0h-259v783h259v-88h-171v-248h99v-88h-99v-271h171v-88zM51 987h83l93 -158h-54z" />
    <glyph glyph-name="Eacute" unicode="&#xc9;" horiz-adv-x="315" 
d="M33 0zM292 0h-259v783h259v-88h-171v-248h99v-88h-99v-271h171v-88zM163 829h-55l93 158h83z" />
    <glyph glyph-name="Ecircumflex" unicode="&#xca;" horiz-adv-x="315" 
d="M19 0zM292 0h-259v783h259v-88h-171v-248h99v-88h-99v-271h171v-88zM168 936l-66 -107h-83l109 158h79l111 -158h-84z" />
    <glyph glyph-name="Edieresis" unicode="&#xcb;" horiz-adv-x="315" 
d="M33 0zM292 0h-259v783h259v-88h-171v-248h99v-88h-99v-271h171v-88zM140 933q-1 -23 -13 -39t-32 -16t-33 16t-13 39q0 21 13 37.5t33 16.5t32.5 -16t12.5 -38zM287 933q-1 -23 -13 -39t-32 -16t-33 16t-13 39q0 21 13 37.5t33 16.5t32.5 -16t12.5 -38z" />
    <glyph glyph-name="Igrave" unicode="&#xcc;" horiz-adv-x="156" 
d="M0 0zM121 0h-88v783h88v-783zM-38 987h83l93 -158h-54z" />
    <glyph glyph-name="Iacute" unicode="&#xcd;" horiz-adv-x="156" 
d="M21 0zM121 0h-88v783h88v-783zM76 829h-55l93 158h83z" />
    <glyph glyph-name="Icircumflex" unicode="&#xce;" horiz-adv-x="156" 
d="M0 0zM121 0h-88v783h88v-783zM79 936l-66 -107h-83l109 158h79l111 -158h-84z" />
    <glyph glyph-name="Idieresis" unicode="&#xcf;" horiz-adv-x="156" 
d="M0 0zM121 0h-88v783h88v-783zM51 933q-1 -23 -13 -39t-32 -16t-33 16t-13 39q0 21 13 37.5t33 16.5t32.5 -16t12.5 -38zM198 933q-1 -23 -13 -39t-32 -16t-33 16t-13 39q0 21 13 37.5t33 16.5t32.5 -16t12.5 -38z" />
    <glyph glyph-name="Eth" unicode="&#xd0;" horiz-adv-x="370" 
d="M337 153q0 -32 -12 -60t-32.5 -48.5t-48 -32.5t-59.5 -12h-152v354h-52v77h52v352h152q32 0 59.5 -12t48 -33t32.5 -49t12 -59v-477zM185 354h-64v-266h64q27 0 45.5 19t18.5 46v477q0 27 -18.5 46t-45.5 19h-64v-264h64v-77z" />
    <glyph glyph-name="Ntilde" unicode="&#xd1;" horiz-adv-x="372" 
d="M28 0zM337 0h-78l-143 477v-477h-83v783h88l134 -483v483h82v-783zM346 932q-11 -32 -38 -50t-55 -18q-21 0 -37 5.5t-29 11.5t-25.5 11.5t-26.5 5.5q-19 0 -35 -8t-33 -33l-39 37q20 37 43.5 51.5t53.5 14.5q23 0 38 -5t27.5 -11t25.5 -11t32 -5q17 0 30.5 7.5
t24.5 30.5z" />
    <glyph glyph-name="Ograve" unicode="&#xd2;" horiz-adv-x="367" 
d="M31 0zM335 138q0 -34 -12 -62t-32.5 -48t-48 -31t-59.5 -11q-31 0 -58.5 11t-48.5 31t-33 48t-12 62v506q0 36 12 64t33 47.5t48.5 30t58.5 10.5q32 0 59.5 -10.5t48 -30t32.5 -47.5t12 -64v-506zM247 644q0 30 -19 47t-45 17q-27 0 -45.5 -17t-18.5 -47v-506
q0 -31 18.5 -47.5t45.5 -16.5q26 0 45 16.5t19 47.5v506zM66 987h83l93 -158h-54z" />
    <glyph glyph-name="Oacute" unicode="&#xd3;" horiz-adv-x="367" 
d="M31 0zM335 138q0 -34 -12 -62t-32.5 -48t-48 -31t-59.5 -11q-31 0 -58.5 11t-48.5 31t-33 48t-12 62v506q0 36 12 64t33 47.5t48.5 30t58.5 10.5q32 0 59.5 -10.5t48 -30t32.5 -47.5t12 -64v-506zM247 644q0 30 -19 47t-45 17q-27 0 -45.5 -17t-18.5 -47v-506
q0 -31 18.5 -47.5t45.5 -16.5q26 0 45 16.5t19 47.5v506zM180 829h-55l93 158h83z" />
    <glyph glyph-name="Ocircumflex" unicode="&#xd4;" horiz-adv-x="367" 
d="M31 0zM335 138q0 -34 -12 -62t-32.5 -48t-48 -31t-59.5 -11q-31 0 -58.5 11t-48.5 31t-33 48t-12 62v506q0 36 12 64t33 47.5t48.5 30t58.5 10.5q32 0 59.5 -10.5t48 -30t32.5 -47.5t12 -64v-506zM247 644q0 30 -19 47t-45 17q-27 0 -45.5 -17t-18.5 -47v-506
q0 -31 18.5 -47.5t45.5 -16.5q26 0 45 16.5t19 47.5v506zM184 936l-66 -107h-83l109 158h79l111 -158h-84z" />
    <glyph glyph-name="Otilde" unicode="&#xd5;" horiz-adv-x="367" 
d="M25 0zM335 138q0 -34 -12 -62t-32.5 -48t-48 -31t-59.5 -11q-31 0 -58.5 11t-48.5 31t-33 48t-12 62v506q0 36 12 64t33 47.5t48.5 30t58.5 10.5q32 0 59.5 -10.5t48 -30t32.5 -47.5t12 -64v-506zM247 644q0 30 -19 47t-45 17q-27 0 -45.5 -17t-18.5 -47v-506
q0 -31 18.5 -47.5t45.5 -16.5q26 0 45 16.5t19 47.5v506zM343 932q-11 -32 -38 -50t-55 -18q-21 0 -37 5.5t-29 11.5t-25.5 11.5t-26.5 5.5q-19 0 -35 -8t-33 -33l-39 37q20 37 43.5 51.5t53.5 14.5q23 0 38 -5t27.5 -11t25.5 -11t32 -5q17 0 30.5 7.5t24.5 30.5z" />
    <glyph glyph-name="Odieresis" unicode="&#xd6;" horiz-adv-x="367" 
d="M31 0zM335 138q0 -34 -12 -62t-32.5 -48t-48 -31t-59.5 -11q-31 0 -58.5 11t-48.5 31t-33 48t-12 62v506q0 36 12 64t33 47.5t48.5 30t58.5 10.5q32 0 59.5 -10.5t48 -30t32.5 -47.5t12 -64v-506zM247 644q0 30 -19 47t-45 17q-27 0 -45.5 -17t-18.5 -47v-506
q0 -31 18.5 -47.5t45.5 -16.5q26 0 45 16.5t19 47.5v506zM155 933q-1 -23 -13 -39t-32 -16t-33 16t-13 39q0 21 13 37.5t33 16.5t32.5 -16t12.5 -38zM302 933q-1 -23 -13 -39t-32 -16t-33 16t-13 39q0 21 13 37.5t33 16.5t32.5 -16t12.5 -38z" />
    <glyph glyph-name="multiply" unicode="&#xd7;" horiz-adv-x="370" 
d="M187 309l-102 -102l-58 60l102 101l-102 100l58 59l102 -98l94 98l61 -59l-95 -100l95 -101l-61 -60z" />
    <glyph glyph-name="Oslash" unicode="&#xd8;" horiz-adv-x="408" 
d="M380 796l-34 -93q13 -27 13 -59v-506q0 -32 -12 -59.5t-33 -48t-49 -32.5t-59 -12q-51 0 -94 32l-11 -32h-74l35 99q-9 28 -9 53v506q0 31 12 59t33 48.5t49 32.5t59 12q53 0 91 -31l11 31h72zM271 480l-125 -369q9 -17 25.5 -27t34.5 -10q27 0 46 18.5t19 45.5v342z
M252 689q-19 19 -46 19q-26 0 -45.5 -19t-19.5 -45v-338l123 366q-4 9 -12 17z" />
    <glyph glyph-name="Ugrave" unicode="&#xd9;" horiz-adv-x="370" 
d="M32 0zM336 138q0 -35 -12 -63t-32.5 -48t-48 -30.5t-59.5 -10.5q-31 0 -58.5 10.5t-48.5 30.5t-33 48t-12 63v645h88v-645q0 -34 18.5 -49t45.5 -15q26 0 45 15t19 49v645h88v-645zM67 987h83l93 -158h-54z" />
    <glyph glyph-name="Uacute" unicode="&#xda;" horiz-adv-x="370" 
d="M32 0zM336 138q0 -35 -12 -63t-32.5 -48t-48 -30.5t-59.5 -10.5q-31 0 -58.5 10.5t-48.5 30.5t-33 48t-12 63v645h88v-645q0 -34 18.5 -49t45.5 -15q26 0 45 15t19 49v645h88v-645zM181 829h-55l93 158h83z" />
    <glyph glyph-name="Ucircumflex" unicode="&#xdb;" horiz-adv-x="370" 
d="M32 0zM336 138q0 -35 -12 -63t-32.5 -48t-48 -30.5t-59.5 -10.5q-31 0 -58.5 10.5t-48.5 30.5t-33 48t-12 63v645h88v-645q0 -34 18.5 -49t45.5 -15q26 0 45 15t19 49v645h88v-645zM185 936l-66 -107h-83l109 158h79l111 -158h-84z" />
    <glyph glyph-name="Udieresis" unicode="&#xdc;" horiz-adv-x="370" 
d="M32 0zM336 138q0 -35 -12 -63t-32.5 -48t-48 -30.5t-59.5 -10.5q-31 0 -58.5 10.5t-48.5 30.5t-33 48t-12 63v645h88v-645q0 -34 18.5 -49t45.5 -15q26 0 45 15t19 49v645h88v-645zM157 933q-1 -23 -13 -39t-32 -16t-33 16t-13 39q0 21 13 37.5t33 16.5t32.5 -16
t12.5 -38zM304 933q-1 -23 -13 -39t-32 -16t-33 16t-13 39q0 21 13 37.5t33 16.5t32.5 -16t12.5 -38z" />
    <glyph glyph-name="Yacute" unicode="&#xdd;" horiz-adv-x="370" 
d="M10 0zM351 783l-126 -413v-370h-89v366l-126 417h100l73 -281l73 281h95zM181 829h-55l93 158h83z" />
    <glyph glyph-name="Thorn" unicode="&#xde;" horiz-adv-x="353" 
d="M337 324q0 -28 -12 -56.5t-32 -51t-46.5 -36.5t-56.5 -14h-69v-166h-88v783h87v-159h70q30 0 56.5 -13.5t46.5 -35.5t32 -50.5t12 -57.5v-143zM249 452q0 36 -20 60t-56 24h-52v-282h52q15 0 28.5 7t24 18.5t17 27t6.5 32.5v113z" />
    <glyph glyph-name="germandbls" unicode="&#xdf;" horiz-adv-x="367" 
d="M336 153q0 -32 -12 -60t-32.5 -48.5t-48 -32.5t-59.5 -12v88q26 0 45 19t19 46v125q0 45 -14.5 58t-49.5 13v88q35 0 49.5 12t14.5 53v142q0 26 -19 45t-45 19q-27 0 -45.5 -19t-18.5 -45v-644h-88v644q0 31 12 59t33 48.5t48.5 32.5t58.5 12q32 0 59.5 -12t48 -32.5
t32.5 -48.5t12 -59v-146q0 -17 -4 -35t-11.5 -33t-18 -25t-23.5 -12q13 0 23.5 -8t18 -21.5t11.5 -31.5t4 -37v-142z" />
    <glyph glyph-name="agrave" unicode="&#xe0;" 
d="M24 0zM330 0h-58l-20 35q-11 -20 -34 -34.5t-61 -14.5q-24 0 -48 9t-43 28.5t-30.5 49.5t-11.5 73q0 45 12 79.5t31 61.5t43 48.5t48 39t46 33.5t38 33v30q0 29 -12.5 47t-39.5 18q-51 0 -65 -41l-74 48q10 15 21.5 29t28 24.5t38.5 16.5t52 6q63 0 101 -39t38 -109v-471
zM244 327q-17 -11 -40 -26.5t-44 -37t-35.5 -48.5t-14.5 -61q0 -38 17 -59t49 -21q35 0 51.5 24t16.5 56v173zM73 815h83l93 -158h-54z" />
    <glyph glyph-name="aacute" unicode="&#xe1;" 
d="M24 0zM330 0h-58l-20 35q-11 -20 -34 -34.5t-61 -14.5q-24 0 -48 9t-43 28.5t-30.5 49.5t-11.5 73q0 45 12 79.5t31 61.5t43 48.5t48 39t46 33.5t38 33v30q0 29 -12.5 47t-39.5 18q-51 0 -65 -41l-74 48q10 15 21.5 29t28 24.5t38.5 16.5t52 6q63 0 101 -39t38 -109v-471
zM244 327q-17 -11 -40 -26.5t-44 -37t-35.5 -48.5t-14.5 -61q0 -38 17 -59t49 -21q35 0 51.5 24t16.5 56v173zM187 657h-55l93 158h83z" />
    <glyph glyph-name="acircumflex" unicode="&#xe2;" 
d="M24 0zM330 0h-58l-20 35q-11 -20 -34 -34.5t-61 -14.5q-24 0 -48 9t-43 28.5t-30.5 49.5t-11.5 73q0 45 12 79.5t31 61.5t43 48.5t48 39t46 33.5t38 33v30q0 29 -12.5 47t-39.5 18q-51 0 -65 -41l-74 48q10 15 21.5 29t28 24.5t38.5 16.5t52 6q63 0 101 -39t38 -109v-471
zM244 327q-17 -11 -40 -26.5t-44 -37t-35.5 -48.5t-14.5 -61q0 -38 17 -59t49 -21q35 0 51.5 24t16.5 56v173zM191 764l-66 -107h-83l109 158h79l111 -158h-84z" />
    <glyph glyph-name="atilde" unicode="&#xe3;" 
d="M24 0zM330 0h-58l-20 35q-11 -20 -34 -34.5t-61 -14.5q-24 0 -48 9t-43 28.5t-30.5 49.5t-11.5 73q0 45 12 79.5t31 61.5t43 48.5t48 39t46 33.5t38 33v30q0 29 -12.5 47t-39.5 18q-51 0 -65 -41l-74 48q10 15 21.5 29t28 24.5t38.5 16.5t52 6q63 0 101 -39t38 -109v-471
zM244 327q-17 -11 -40 -26.5t-44 -37t-35.5 -48.5t-14.5 -61q0 -38 17 -59t49 -21q35 0 51.5 24t16.5 56v173zM351 760q-11 -32 -38 -50t-55 -18q-21 0 -37 5.5t-29 11.5t-25.5 11.5t-26.5 5.5q-19 0 -35 -8t-33 -33l-39 37q20 37 43.5 51.5t53.5 14.5q23 0 38 -5t27.5 -11
t25.5 -11t32 -5q17 0 30.5 7.5t24.5 30.5z" />
    <glyph glyph-name="adieresis" unicode="&#xe4;" 
d="M24 0zM330 0h-58l-20 35q-11 -20 -34 -34.5t-61 -14.5q-24 0 -48 9t-43 28.5t-30.5 49.5t-11.5 73q0 45 12 79.5t31 61.5t43 48.5t48 39t46 33.5t38 33v30q0 29 -12.5 47t-39.5 18q-51 0 -65 -41l-74 48q10 15 21.5 29t28 24.5t38.5 16.5t52 6q63 0 101 -39t38 -109v-471
zM244 327q-17 -11 -40 -26.5t-44 -37t-35.5 -48.5t-14.5 -61q0 -38 17 -59t49 -21q35 0 51.5 24t16.5 56v173zM163 761q-1 -23 -13 -39t-32 -16t-33 16t-13 39q0 21 13 37.5t33 16.5t32.5 -16t12.5 -38zM310 761q-1 -23 -13 -39t-32 -16t-33 16t-13 39q0 21 13 37.5t33 16.5
t32.5 -16t12.5 -38z" />
    <glyph glyph-name="aring" unicode="&#xe5;" 
d="M24 0zM190 657q-32 0 -54 22.5t-22 57.5t22 56.5t54 21.5q33 0 55 -21.5t22 -56.5t-22 -57.5t-55 -22.5zM190 693q18 0 30 12t12 32q0 18 -12 30t-30 12q-17 0 -29 -12t-12 -30q0 -20 12 -32t29 -12zM330 0h-58l-20 35q-11 -20 -34 -34.5t-61 -14.5q-24 0 -48 9t-43 28.5
t-30.5 49.5t-11.5 73q0 45 12 79.5t31 61.5t43 48.5t48 39t46 33.5t38 33v30q0 29 -12.5 47t-39.5 18q-51 0 -65 -41l-74 48q10 15 21.5 29t28 24.5t38.5 16.5t52 6q63 0 101 -39t38 -109v-471zM244 327q-17 -11 -40 -26.5t-44 -37t-35.5 -48.5t-14.5 -61q0 -38 17 -59
t49 -21q35 0 51.5 24t16.5 56v173z" />
    <glyph glyph-name="ae" unicode="&#xe6;" horiz-adv-x="587" 
d="M548 138q0 -32 -12 -59.5t-32 -48t-47 -32.5t-58 -12q-38 0 -68.5 16.5t-51.5 43.5q-13 -18 -39 -36t-73 -18q-24 0 -48.5 9.5t-43.5 28t-31 45t-12 60.5q0 48 12 84.5t30.5 64.5t42.5 49.5t48 39.5t46 34t38 34v36q-2 25 -14 42t-38 17q-49 0 -63 -44l-75 51
q7 15 20 29.5t30.5 26t39.5 18.5t48 7q30 0 55.5 -11.5t43.5 -31.5q21 20 47.5 31.5t58.5 11.5q31 0 59 -11.5t49 -32.5t33 -51.5t12 -69.5q0 -60 -12.5 -102t-39 -74.5t-67.5 -59t-99 -55.5v-35q3 -26 19.5 -42.5t42.5 -16.5t43.5 18.5t17.5 45.5v10l88 29v-39zM467 454
q0 46 -19.5 64t-45.5 18t-44 -17t-21 -42v-208q39 21 64.5 41t40 41.5t20 46.5t5.5 56zM249 327q-18 -13 -40 -29.5t-42 -38.5t-33.5 -50t-13.5 -64q0 -27 18.5 -46t45.5 -19q13 0 25 6.5t21 17t14 23.5t5 27v173z" />
    <glyph glyph-name="ccedilla" unicode="&#xe7;" horiz-adv-x="361" 
d="M30 0zM182 536q-27 0 -45.5 -16.5t-18.5 -48.5v-333q0 -31 18.5 -47.5t45.5 -16.5q26 0 45 16t19 48v10l88 29v-39q0 -39 -12 -67.5t-33 -47t-48.5 -28t-58.5 -9.5q-32 0 -60 10t-48.5 29.5t-32 47.5t-11.5 65v333q0 41 11.5 69t32 45.5t48.5 25.5t60 8q31 0 58.5 -8
t48.5 -26t33 -46t12 -68v-26h-88v26q0 32 -19 48.5t-45 16.5zM183 -171h-37l5 105q1 23 11 33t21 10q14 0 25.5 -7.5t11.5 -27.5q0 -22 -9 -43z" />
    <glyph glyph-name="egrave" unicode="&#xe8;" 
d="M30 0zM328 138q0 -36 -11.5 -64.5t-31.5 -48t-47.5 -29.5t-58.5 -10q-32 0 -59 10t-47 29.5t-31.5 48t-11.5 64.5v333q0 36 11.5 63.5t32 46.5t48.5 28.5t60 9.5q31 0 58.5 -10.5t48.5 -31t33 -50t12 -68.5q0 -62 -12.5 -104t-38.5 -74t-67 -58t-98 -55v-30
q0 -31 16.5 -47.5t44.5 -16.5q26 0 43 16.5t17 47.5v10l89 29v-39zM246 454q0 46 -19 64t-45 18q-27 0 -45.5 -16.5t-18.5 -48.5v-206q40 19 65 37.5t39 40.5t19 49t5 62zM63 815h83l93 -158h-54z" />
    <glyph glyph-name="eacute" unicode="&#xe9;" 
d="M30 0zM328 138q0 -36 -11.5 -64.5t-31.5 -48t-47.5 -29.5t-58.5 -10q-32 0 -59 10t-47 29.5t-31.5 48t-11.5 64.5v333q0 36 11.5 63.5t32 46.5t48.5 28.5t60 9.5q31 0 58.5 -10.5t48.5 -31t33 -50t12 -68.5q0 -62 -12.5 -104t-38.5 -74t-67 -58t-98 -55v-30
q0 -31 16.5 -47.5t44.5 -16.5q26 0 43 16.5t17 47.5v10l89 29v-39zM246 454q0 46 -19 64t-45 18q-27 0 -45.5 -16.5t-18.5 -48.5v-206q40 19 65 37.5t39 40.5t19 49t5 62zM177 657h-55l93 158h83z" />
    <glyph glyph-name="ecircumflex" unicode="&#xea;" 
d="M30 0zM328 138q0 -36 -11.5 -64.5t-31.5 -48t-47.5 -29.5t-58.5 -10q-32 0 -59 10t-47 29.5t-31.5 48t-11.5 64.5v333q0 36 11.5 63.5t32 46.5t48.5 28.5t60 9.5q31 0 58.5 -10.5t48.5 -31t33 -50t12 -68.5q0 -62 -12.5 -104t-38.5 -74t-67 -58t-98 -55v-30
q0 -31 16.5 -47.5t44.5 -16.5q26 0 43 16.5t17 47.5v10l89 29v-39zM246 454q0 46 -19 64t-45 18q-27 0 -45.5 -16.5t-18.5 -48.5v-206q40 19 65 37.5t39 40.5t19 49t5 62zM182 764l-66 -107h-83l109 158h79l111 -158h-84z" />
    <glyph glyph-name="edieresis" unicode="&#xeb;" 
d="M30 0zM328 138q0 -36 -11.5 -64.5t-31.5 -48t-47.5 -29.5t-58.5 -10q-32 0 -59 10t-47 29.5t-31.5 48t-11.5 64.5v333q0 36 11.5 63.5t32 46.5t48.5 28.5t60 9.5q31 0 58.5 -10.5t48.5 -31t33 -50t12 -68.5q0 -62 -12.5 -104t-38.5 -74t-67 -58t-98 -55v-30
q0 -31 16.5 -47.5t44.5 -16.5q26 0 43 16.5t17 47.5v10l89 29v-39zM246 454q0 46 -19 64t-45 18q-27 0 -45.5 -16.5t-18.5 -48.5v-206q40 19 65 37.5t39 40.5t19 49t5 62zM153 761q-1 -23 -13 -39t-32 -16t-33 16t-13 39q0 21 13 37.5t33 16.5t32.5 -16t12.5 -38zM300 761
q-1 -23 -13 -39t-32 -16t-33 16t-13 39q0 21 13 37.5t33 16.5t32.5 -16t12.5 -38z" />
    <glyph glyph-name="igrave" unicode="&#xec;" horiz-adv-x="186" 
d="M0 0zM150 0h-88v611h88v-611zM-9 815h83l93 -158h-54z" />
    <glyph glyph-name="iacute" unicode="&#xed;" horiz-adv-x="189" 
d="M21 0zM121 0h-88v611h88v-611zM76 657h-55l93 158h83z" />
    <glyph glyph-name="icircumflex" unicode="&#xee;" horiz-adv-x="235" 
d="M0 0zM156 0h-88v611h88v-611zM114 764l-66 -107h-83l109 158h79l111 -158h-84z" />
    <glyph glyph-name="idieresis" unicode="&#xef;" horiz-adv-x="235" 
d="M0 0zM156 0h-88v611h88v-611zM86 761q-1 -23 -13 -39t-32 -16t-33 16t-13 39q0 21 13 37.5t33 16.5t32.5 -16t12.5 -38zM233 761q-1 -23 -13 -39t-32 -16t-33 16t-13 39q0 21 13 37.5t33 16.5t32.5 -16t12.5 -38z" />
    <glyph glyph-name="eth" unicode="&#xf0;" horiz-adv-x="365" 
d="M347 734l-24 -23q5 -16 8.5 -33t3.5 -34v-506q0 -36 -12 -64.5t-32.5 -48t-48 -29.5t-59.5 -10q-31 0 -58.5 10t-48.5 29.5t-33 48t-12 64.5v178q0 76 36 114.5t101 38.5q36 0 52.5 -9t26.5 -19v198l-149 -141v77l125 119q-17 14 -40 14t-39 -13l-61 68q18 15 43 24t57 9
q35 0 61.5 -10.5t45.5 -27.5l57 53v-77zM183 381q-26 0 -45 -16t-19 -49v-178q0 -31 19 -47.5t45 -16.5q27 0 45.5 16t18.5 48v173q0 35 -17 52.5t-47 17.5z" />
    <glyph glyph-name="ntilde" unicode="&#xf1;" horiz-adv-x="380" 
d="M32 0zM347 0h-88v471q0 32 -21 48.5t-48 16.5q-26 0 -47.5 -16.5t-21.5 -48.5v-471h-88v611h58l20 -29q15 17 37 27t59 10q63 0 101.5 -39.5t38.5 -105.5v-474zM350 760q-11 -32 -38 -50t-55 -18q-21 0 -37 5.5t-29 11.5t-25.5 11.5t-26.5 5.5q-19 0 -35 -8t-33 -33
l-39 37q20 37 43.5 51.5t53.5 14.5q23 0 38 -5t27.5 -11t25.5 -11t32 -5q17 0 30.5 7.5t24.5 30.5z" />
    <glyph glyph-name="ograve" unicode="&#xf2;" horiz-adv-x="365" 
d="M30 0zM334 138q0 -35 -12 -63.5t-33 -48t-48.5 -30t-58.5 -10.5q-32 0 -60 10.5t-48.5 30t-32 48t-11.5 63.5v333q0 34 11.5 61.5t32 47t48.5 29.5t60 10q31 0 58.5 -10t48.5 -29.5t33 -47t12 -61.5v-333zM246 471q0 32 -19 48.5t-45 16.5q-27 0 -45.5 -16.5t-18.5 -48.5
v-333q0 -31 18.5 -47.5t45.5 -16.5q26 0 45 16.5t19 47.5v333zM65 815h83l93 -158h-54z" />
    <glyph glyph-name="oacute" unicode="&#xf3;" horiz-adv-x="365" 
d="M30 0zM334 138q0 -35 -12 -63.5t-33 -48t-48.5 -30t-58.5 -10.5q-32 0 -60 10.5t-48.5 30t-32 48t-11.5 63.5v333q0 34 11.5 61.5t32 47t48.5 29.5t60 10q31 0 58.5 -10t48.5 -29.5t33 -47t12 -61.5v-333zM246 471q0 32 -19 48.5t-45 16.5q-27 0 -45.5 -16.5t-18.5 -48.5
v-333q0 -31 18.5 -47.5t45.5 -16.5q26 0 45 16.5t19 47.5v333zM179 657h-55l93 158h83z" />
    <glyph glyph-name="ocircumflex" unicode="&#xf4;" horiz-adv-x="365" 
d="M30 0zM334 138q0 -35 -12 -63.5t-33 -48t-48.5 -30t-58.5 -10.5q-32 0 -60 10.5t-48.5 30t-32 48t-11.5 63.5v333q0 34 11.5 61.5t32 47t48.5 29.5t60 10q31 0 58.5 -10t48.5 -29.5t33 -47t12 -61.5v-333zM246 471q0 32 -19 48.5t-45 16.5q-27 0 -45.5 -16.5t-18.5 -48.5
v-333q0 -31 18.5 -47.5t45.5 -16.5q26 0 45 16.5t19 47.5v333zM184 764l-66 -107h-83l109 158h79l111 -158h-84z" />
    <glyph glyph-name="otilde" unicode="&#xf5;" horiz-adv-x="365" 
d="M24 0zM334 138q0 -35 -12 -63.5t-33 -48t-48.5 -30t-58.5 -10.5q-32 0 -60 10.5t-48.5 30t-32 48t-11.5 63.5v333q0 34 11.5 61.5t32 47t48.5 29.5t60 10q31 0 58.5 -10t48.5 -29.5t33 -47t12 -61.5v-333zM246 471q0 32 -19 48.5t-45 16.5q-27 0 -45.5 -16.5t-18.5 -48.5
v-333q0 -31 18.5 -47.5t45.5 -16.5q26 0 45 16.5t19 47.5v333zM342 760q-11 -32 -38 -50t-55 -18q-21 0 -37 5.5t-29 11.5t-25.5 11.5t-26.5 5.5q-19 0 -35 -8t-33 -33l-39 37q20 37 43.5 51.5t53.5 14.5q23 0 38 -5t27.5 -11t25.5 -11t32 -5q17 0 30.5 7.5t24.5 30.5z" />
    <glyph glyph-name="odieresis" unicode="&#xf6;" horiz-adv-x="365" 
d="M30 0zM334 138q0 -35 -12 -63.5t-33 -48t-48.5 -30t-58.5 -10.5q-32 0 -60 10.5t-48.5 30t-32 48t-11.5 63.5v333q0 34 11.5 61.5t32 47t48.5 29.5t60 10q31 0 58.5 -10t48.5 -29.5t33 -47t12 -61.5v-333zM246 471q0 32 -19 48.5t-45 16.5q-27 0 -45.5 -16.5t-18.5 -48.5
v-333q0 -31 18.5 -47.5t45.5 -16.5q26 0 45 16.5t19 47.5v333zM154 761q-1 -23 -13 -39t-32 -16t-33 16t-13 39q0 21 13 37.5t33 16.5t32.5 -16t12.5 -38zM301 761q-1 -23 -13 -39t-32 -16t-33 16t-13 39q0 21 13 37.5t33 16.5t32.5 -16t12.5 -38z" />
    <glyph glyph-name="divide" unicode="&#xf7;" horiz-adv-x="355" 
d="M34 121zM321 331h-287v74h287v-74zM222 547q0 -23 -11 -40.5t-33 -17.5q-23 0 -33.5 18.5t-10.5 39.5q0 23 10.5 41t33.5 18q22 0 33 -17.5t11 -41.5zM222 179q0 -23 -11 -40.5t-33 -17.5q-23 0 -33.5 18.5t-10.5 39.5q0 23 10.5 41t33.5 18q22 0 33 -17.5t11 -41.5z" />
    <glyph glyph-name="oslash" unicode="&#xf8;" horiz-adv-x="408" 
d="M380 644l-44 -94q23 -35 23 -79v-333q0 -32 -12.5 -59.5t-33.5 -48t-49 -32.5t-59 -12q-58 0 -100 36l-16 -34h-63l40 86q-14 34 -14 64v333q0 31 12 59t33 49t49 33t59 12q51 0 91 -29l24 49h60zM271 406l-125 -296q24 -36 59 -36q27 0 46.5 18.5t19.5 45.5v268z
M205 536q-26 0 -45.5 -19t-19.5 -46v-237l116 276q-26 26 -51 26z" />
    <glyph glyph-name="ugrave" unicode="&#xf9;" horiz-adv-x="366" 
d="M32 0zM332 0h-58l-20 29q-9 -13 -29.5 -28t-63.5 -15q-60 0 -94.5 42t-34.5 120v463h88v-473q0 -31 17.5 -47.5t44.5 -16.5q26 0 44 15.5t18 48.5v473h88v-611zM65 815h83l93 -158h-54z" />
    <glyph glyph-name="uacute" unicode="&#xfa;" horiz-adv-x="366" 
d="M32 0zM332 0h-58l-20 29q-9 -13 -29.5 -28t-63.5 -15q-60 0 -94.5 42t-34.5 120v463h88v-473q0 -31 17.5 -47.5t44.5 -16.5q26 0 44 15.5t18 48.5v473h88v-611zM179 657h-55l93 158h83z" />
    <glyph glyph-name="ucircumflex" unicode="&#xfb;" horiz-adv-x="366" 
d="M32 0zM332 0h-58l-20 29q-9 -13 -29.5 -28t-63.5 -15q-60 0 -94.5 42t-34.5 120v463h88v-473q0 -31 17.5 -47.5t44.5 -16.5q26 0 44 15.5t18 48.5v473h88v-611zM184 764l-66 -107h-83l109 158h79l111 -158h-84z" />
    <glyph glyph-name="udieresis" unicode="&#xfc;" horiz-adv-x="366" 
d="M32 0zM332 0h-58l-20 29q-9 -13 -29.5 -28t-63.5 -15q-60 0 -94.5 42t-34.5 120v463h88v-473q0 -31 17.5 -47.5t44.5 -16.5q26 0 44 15.5t18 48.5v473h88v-611zM155 761q-1 -23 -13 -39t-32 -16t-33 16t-13 39q0 21 13 37.5t33 16.5t32.5 -16t12.5 -38zM302 761
q-1 -23 -13 -39t-32 -16t-33 16t-13 39q0 21 13 37.5t33 16.5t32.5 -16t12.5 -38z" />
    <glyph glyph-name="yacute" unicode="&#xfd;" horiz-adv-x="361" 
d="M22 0zM327 -171h-89v190q-7 -11 -24.5 -22t-55.5 -11q-25 0 -49.5 8t-43.5 25.5t-31 45.5t-12 69v477h88v-473q0 -32 18.5 -48t46.5 -16q26 0 44.5 16t18.5 48v473h89v-782zM174 657h-55l93 158h83z" />
    <glyph glyph-name="thorn" unicode="&#xfe;" horiz-adv-x="373" 
d="M343 138q0 -35 -11.5 -63.5t-31 -48t-45 -30t-53.5 -10.5q-33 0 -53 9.5t-31 24.5v-191h-88v957l88 29v-221q11 10 32 17.5t58 7.5q28 0 52.5 -10t43 -29t29 -46.5t10.5 -62.5v-333zM255 471q0 32 -21 48.5t-48 16.5t-47.5 -16.5t-20.5 -48.5v-333q0 -29 21.5 -46.5
t48.5 -17.5q28 0 47.5 17.5t19.5 46.5v333z" />
    <glyph glyph-name="ydieresis" unicode="&#xff;" horiz-adv-x="361" 
d="M22 0zM327 -171h-89v190q-7 -11 -24.5 -22t-55.5 -11q-25 0 -49.5 8t-43.5 25.5t-31 45.5t-12 69v477h88v-473q0 -32 18.5 -48t46.5 -16q26 0 44.5 16t18.5 48v473h89v-782zM152 761q-1 -23 -13 -39t-32 -16t-33 16t-13 39q0 21 13 37.5t33 16.5t32.5 -16t12.5 -38z
M299 761q-1 -23 -13 -39t-32 -16t-33 16t-13 39q0 21 13 37.5t33 16.5t32.5 -16t12.5 -38z" />
    <glyph glyph-name="Lcommaaccent" unicode="&#x13b;" horiz-adv-x="284" 
d="M33 0zM272 0h-239v783h88v-695h151v-88zM142 -171h-37l5 105q1 23 11 33t21 10q14 0 25.5 -7.5t11.5 -27.5q0 -22 -9 -43z" />
    <glyph glyph-name="OE" unicode="&#x152;" horiz-adv-x="518" 
d="M492 0h-240q-36 -14 -68 -14q-31 0 -58.5 12t-48.5 32.5t-33 48t-12 59.5v506q0 31 12 59t33 48.5t48.5 32.5t58.5 12q39 0 65 -13h243v-88h-155v-258h100v-88h-100v-261h155v-88zM230 689q-18 19 -46 19q-26 0 -45 -19t-19 -45v-506q0 -27 19 -45.5t45 -18.5t44.5 16.5
t20.5 42.5v516q-2 22 -19 40z" />
    <glyph glyph-name="oe" unicode="&#x153;" horiz-adv-x="582" 
d="M546 138q0 -32 -12 -59.5t-32 -48t-47.5 -32.5t-58.5 -12q-62 0 -106 44q-21 -20 -48 -32t-59 -12q-31 0 -58.5 12t-48.5 32.5t-33 48t-12 59.5v333q0 31 12 59t33 49t48.5 33t58.5 12q32 0 60 -12t48 -34q22 22 49.5 34t59.5 12q31 0 59 -11.5t48.5 -32.5t32.5 -51.5
t12 -69.5q0 -60 -12.5 -102t-38.5 -74.5t-67 -59t-99 -55.5v-35q2 -26 18.5 -42.5t42.5 -16.5t44 18.5t18 45.5v10l88 29v-39zM247 477q-2 25 -20.5 42t-43.5 17q-27 0 -45.5 -19t-18.5 -46v-333q0 -27 18.5 -45.5t45.5 -18.5q26 0 45 18.5t19 45.5v339zM464 454
q0 46 -19 64t-45 18t-44.5 -17t-20.5 -42v-208q39 21 64.5 41t39.5 41.5t19.5 46.5t5.5 56z" />
    <glyph glyph-name="Scaron" unicode="&#x160;" horiz-adv-x="365" 
d="M27 0zM185 880l66 107h83l-109 -158h-79l-111 158h84zM179 796q66 0 109 -38t43 -114v-43l-88 19v24q0 26 -19 45t-45 19q-20 0 -32.5 -8t-20 -20.5t-10 -28t-2.5 -31.5q0 -24 10.5 -49.5t26.5 -50.5t35 -49t35 -45q21 -28 42 -58t37.5 -61.5t27 -65.5t10.5 -71
q0 -36 -8.5 -69.5t-28 -59t-50 -40.5t-73.5 -15q-35 0 -62.5 12t-47.5 32.5t-30.5 48t-10.5 59.5v42l88 -19v-23q0 -27 20.5 -46t46.5 -19q35 0 52 21.5t17 53.5q0 26 -3 46t-11 40q-12 31 -29 59t-36.5 55t-40 53.5t-39.5 52.5q-30 42 -47.5 82t-17.5 100q0 72 39 116
t113 44z" />
    <glyph glyph-name="scaron" unicode="&#x161;" horiz-adv-x="363" 
d="M27 0zM184 708l66 107h83l-109 -158h-79l-111 158h84zM338 154q0 -33 -9.5 -63t-29 -53.5t-49 -37.5t-70.5 -14q-34 0 -62 11t-48.5 31t-31.5 48t-11 62v42l88 -19v-23q0 -29 18 -46.5t47 -17.5q68 0 68 64q0 24 -6 40.5t-17 30.5q-16 18 -34 33t-36.5 30t-36.5 31
t-34 35q-22 26 -35.5 58t-13.5 74q0 33 11 60.5t31 47t47.5 30.5t60.5 11q69 0 106 -41t37 -107v-42l-86 20v22q0 30 -16.5 47.5t-43.5 17.5q-28 0 -43.5 -18t-15.5 -49q0 -35 22 -63t53 -54t63.5 -53.5t53.5 -61.5q11 -18 17 -39.5t6 -43.5z" />
    <glyph glyph-name="tcommaaccent" unicode="&#x163;" horiz-adv-x="326" 
d="M20 0zM209 74q28 0 40 20l61 -66q-17 -20 -44 -31t-53 -11q-69 0 -103 38.5t-34 112.5v396h-56v78h56v111l88 30v-141h116v-78h-116v-396q0 -63 45 -63zM163 -171h-37l5 105q1 23 11 33t21 10q14 0 25.5 -7.5t11.5 -27.5q0 -22 -9 -43z" />
    <glyph glyph-name="Tcaron" unicode="&#x164;" horiz-adv-x="288" 
d="M0 0zM145 880l66 107h83l-109 -158h-79l-111 158h84zM278 695h-91v-695h-88v695h-89v88h268v-88z" />
    <glyph glyph-name="Ydieresis" unicode="&#x178;" horiz-adv-x="370" 
d="M10 0zM351 783l-126 -413v-370h-89v366l-126 417h100l73 -281l73 281h95zM157 933q-1 -23 -13 -39t-32 -16t-33 16t-13 39q0 21 13 37.5t33 16.5t32.5 -16t12.5 -38zM304 933q-1 -23 -13 -39t-32 -16t-33 16t-13 39q0 21 13 37.5t33 16.5t32.5 -16t12.5 -38z" />
    <glyph glyph-name="Zcaron" unicode="&#x17d;" horiz-adv-x="361" 
d="M28 0zM187 880l66 107h83l-109 -158h-79l-111 158h84zM332 0h-304v69l203 619h-199v95h300v-69l-200 -619h200v-95z" />
    <glyph glyph-name="zcaron" unicode="&#x17e;" horiz-adv-x="347" 
d="M31 0zM181 708l66 107h83l-109 -158h-79l-111 158h84zM315 0h-283v69l187 448h-184v94h280v-69l-183 -448h183v-94z" />
    <glyph glyph-name="florin" unicode="&#x192;" horiz-adv-x="294" 
d="M214 815q36 0 70 -14l-35 -85q-14 11 -35 11q-27 0 -46 -16t-19 -48v-52h65v-78h-65v-562q0 -32 -11 -59.5t-30.5 -48.5t-48 -33t-62.5 -12q-36 0 -61 12l23 89q16 -13 38 -13q27 0 45.5 16.5t18.5 48.5v562h-39v78h39v52q0 36 12 64.5t33 48t49 29.5t59 10z" />
    <glyph glyph-name="circumflex" unicode="&#x2c6;" horiz-adv-x="417" 
d="M208 764l-66 -107h-83l109 158h79l111 -158h-84z" />
    <glyph glyph-name="tilde" unicode="&#x2dc;" horiz-adv-x="400" 
d="M362 760q-11 -32 -38 -50t-55 -18q-21 0 -37 5.5t-29 11.5t-25.5 11.5t-26.5 5.5q-19 0 -35 -8t-33 -33l-39 37q20 37 43.5 51.5t53.5 14.5q23 0 38 -5t27.5 -11t25.5 -11t32 -5q17 0 30.5 7.5t24.5 30.5z" />
    <glyph glyph-name="pi" unicode="&#x3c0;" horiz-adv-x="520" 
d="M412 74q28 0 40 20l61 -66q-17 -20 -44 -31t-53 -11q-69 0 -103 38.5t-34 112.5v396h-161v-533h-88v611h337v-474q0 -63 45 -63z" />
    <glyph glyph-name="endash" unicode="&#x2013;" horiz-adv-x="438" 
d="M405 354h-372v77h372v-77z" />
    <glyph glyph-name="emdash" unicode="&#x2014;" horiz-adv-x="656" 
d="M623 354h-590v77h590v-77z" />
    <glyph glyph-name="quoteleft" unicode="&#x2018;" horiz-adv-x="140" 
d="M93 815h26l-9 -227q-1 -29 -14 -42t-28 -13q-17 0 -32 15t-15 41q0 15 6 30z" />
    <glyph glyph-name="quoteright" unicode="&#x2019;" horiz-adv-x="140" 
d="M46 533h-25l9 227q1 29 13.5 42t28.5 13q17 0 32 -14.5t15 -40.5q0 -15 -6 -31z" />
    <glyph glyph-name="quotesinglbase" unicode="&#x201a;" horiz-adv-x="140" 
d="M43 -171h-25l9 228q1 29 13.5 42t28.5 13q17 0 32 -15t15 -41q0 -15 -6 -31z" />
    <glyph glyph-name="quotedblleft" unicode="&#x201c;" horiz-adv-x="259" 
d="M21 533zM93 815h26l-9 -227q-1 -29 -14 -42t-28 -13q-17 0 -32 15t-15 41q0 15 6 30zM213 815h26l-9 -227q-1 -29 -14 -42t-28 -13q-17 0 -32 15t-15 41q0 15 6 30z" />
    <glyph glyph-name="quotedblright" unicode="&#x201d;" horiz-adv-x="259" 
d="M21 533zM46 533h-25l9 227q1 29 13.5 42t28.5 13q17 0 32 -14.5t15 -40.5q0 -15 -6 -31zM166 533h-25l9 227q1 29 13.5 42t28.5 13q17 0 32 -14.5t15 -40.5q0 -15 -6 -31z" />
    <glyph glyph-name="quotedblbase" unicode="&#x201e;" horiz-adv-x="259" 
d="M18 0zM43 -171h-25l9 228q1 29 13.5 42t28.5 13q17 0 32 -15t15 -41q0 -15 -6 -31zM163 -171h-25l9 228q1 29 13.5 42t28.5 13q17 0 32 -15t15 -41q0 -15 -6 -31z" />
    <glyph glyph-name="dagger" unicode="&#x2020;" horiz-adv-x="276" 
d="M166 759q13 -7 13 -29q0 -12 -1 -15l-16 -13q7 -17 9 -36.5t2 -40.5q0 -31 -14 -62q30 21 63 21q16 0 27.5 -8.5t11.5 -31.5q0 -13 -7.5 -19t-16.5 -6q-2 15 -31 15q-16 0 -28.5 -5t-24.5 -15q30 -17 30 -50q0 -62 -2.5 -129t-8 -129.5t-14.5 -114.5t-22 -84
q-12 32 -21 84t-14.5 114.5t-8 129.5t-2.5 129q0 34 29 50q-20 20 -52 20q-29 0 -32 -15q-6 0 -13 6t-7 19q0 23 11 31.5t29 8.5q29 0 62 -21q-17 32 -17 62q0 43 14 77l-16 13q-2 8 -2 15q0 21 13 29h57z" />
    <glyph glyph-name="daggerdbl" unicode="&#x2021;" horiz-adv-x="260" 
d="M103 -118q-13 11 -13 29q0 7 3 13l15 12q-7 17 -9.5 35t-2.5 36q0 29 14 58q-29 -19 -57 -19q-17 0 -27.5 8.5t-10.5 28.5q0 11 6 17t13 6q3 -14 30 -14q16 0 27.5 5t22.5 14q-28 14 -28 48q0 39 5.5 80t7.5 81q-2 42 -7.5 84t-5.5 80q0 29 28 48q-23 18 -50 18t-30 -13
q-7 0 -13 6t-6 16q0 22 10.5 30t27.5 8q26 0 57 -20q-14 32 -14 57q0 21 2.5 38t9.5 34l-15 13q-3 6 -3 14q0 19 13 27h53q12 -6 12 -27q0 -13 -1 -14l-14 -13q5 -15 7 -33t2 -39q0 -15 -2 -28.5t-11 -28.5q14 10 28 15t31 5q16 0 26.5 -8t10.5 -30q0 -10 -7 -16t-14 -6
q-1 7 -9 10t-22 3t-25 -4.5t-23 -13.5q28 -18 28 -48q0 -38 -6 -80t-8 -84q2 -40 8 -81t6 -80q0 -30 -28 -48q12 -9 23 -14t25 -5q30 0 31 14q7 0 14 -6t7 -17q0 -20 -10.5 -28.5t-26.5 -8.5q-31 0 -59 19q9 -15 11 -29.5t2 -28.5q0 -20 -2 -37.5t-7 -33.5l14 -12
q1 -3 1 -13q0 -20 -12 -29h-53z" />
    <glyph glyph-name="bullet" unicode="&#x2022;" horiz-adv-x="311" 
d="M26 347q0 27 10 50.5t27 41.5t41 28t51 10t50.5 -10t41 -28t27.5 -41.5t10 -50.5t-10 -50.5t-27.5 -41t-41 -27.5t-50.5 -10t-51 10t-41 27.5t-27 41t-10 50.5z" />
    <glyph glyph-name="ellipsis" unicode="&#x2026;" horiz-adv-x="648" 
d="M41 0zM129 52q0 -23 -11 -40.5t-33 -17.5q-23 0 -33.5 18.5t-10.5 39.5q0 23 10.5 41t33.5 18q22 0 33 -17.5t11 -41.5zM372 52q0 -23 -11 -40.5t-33 -17.5q-23 0 -33.5 18.5t-10.5 39.5q0 23 10.5 41t33.5 18q22 0 33 -17.5t11 -41.5zM615 52q0 -23 -11 -40.5t-33 -17.5
q-23 0 -33.5 18.5t-10.5 39.5q0 23 10.5 41t33.5 18q22 0 33 -17.5t11 -41.5z" />
    <glyph glyph-name="perthousand" unicode="&#x2030;" horiz-adv-x="728" 
d="M32 0zM696 71q0 -37 -25.5 -63t-62.5 -26q-18 0 -33.5 7t-27.5 19t-19 28.5t-7 34.5v272q0 18 7 33.5t19 27.5t27.5 19t33.5 7t34 -7t28 -19t19 -27.5t7 -33.5v-272zM637 343q0 13 -8.5 20.5t-20.5 7.5q-13 0 -21 -7.5t-8 -20.5v-272q0 -13 8 -21t21 -8q12 0 20.5 8
t8.5 21v272zM484 71q0 -37 -25.5 -63t-62.5 -26q-18 0 -33.5 7t-27.5 19t-19 28.5t-7 34.5v272q0 18 7 33.5t19 27.5t27.5 19t33.5 7t34 -7t28 -19t19 -27.5t7 -33.5v-272zM425 343q0 13 -8.5 20.5t-20.5 7.5q-13 0 -21 -7.5t-8 -20.5v-272q0 -13 8 -21t21 -8q12 0 20.5 8
t8.5 21v272zM207 443q0 -37 -25.5 -63t-62.5 -26q-18 0 -33.5 7t-27.5 19t-19 28.5t-7 34.5v272q0 18 7 33.5t19 27.5t27.5 19t33.5 7t34 -7t28 -19t19 -27.5t7 -33.5v-272zM148 715q0 13 -8.5 20.5t-20.5 7.5q-13 0 -21 -7.5t-8 -20.5v-272q0 -13 8 -21t21 -8q12 0 20.5 8
t8.5 21v272zM482 783l-381 -783h-65l383 783h63z" />
    <glyph glyph-name="guilsinglleft" unicode="&#x2039;" horiz-adv-x="190" 
d="M83 417l72 -62v-94l-121 122v65l121 127v-97z" />
    <glyph glyph-name="guilsinglright" unicode="&#x203a;" horiz-adv-x="190" 
d="M34 478v97l121 -127v-65l-121 -122v94l72 62z" />
    <glyph glyph-name="nineinferior" unicode="&#x2089;" horiz-adv-x="240" 
d="M206 71q0 -42 -24.5 -65.5t-62.5 -23.5t-63 23.5t-25 65.5v19h59v-19q0 -13 7.5 -21t21.5 -8q11 0 20 8t9 21v69q-7 -4 -16 -6.5t-23 -2.5t-28 6t-25 17.5t-18 28t-7 37.5v123q0 37 25 62.5t63 25.5q18 0 33.5 -7t27.5 -19t19 -28t7 -34v-272zM148 343q0 13 -9 20.5
t-20 7.5q-29 0 -29 -28v-123q0 -12 7.5 -20.5t21.5 -8.5q13 0 21 9t8 22v121z" />
    <glyph glyph-name="Euro" unicode="&#x20ac;" horiz-adv-x="343" 
d="M226 74q29 0 48 22l46 -77q-42 -33 -94 -33q-32 0 -59.5 12t-48.5 32.5t-33 48t-12 59.5v160h-52l7 53h45v61h-52l7 51h45v181q0 31 12 59t33 48.5t48.5 32.5t59.5 12q20 0 38 -4.5t33 -14.5l-14 -107q-8 17 -23.5 27.5t-33.5 10.5q-28 0 -46.5 -19t-18.5 -45v-181h96
l-6 -51h-90v-61h82l-7 -53h-75v-160q0 -27 18.5 -45.5t46.5 -18.5z" />
    <glyph glyph-name="trademark" unicode="&#x2122;" horiz-adv-x="610" 
d="M512 339v270l-51 -270h-69l-52 272v-272h-63v410h94l56 -272l56 272h92v-410h-63zM234 749v-67h-65v-343h-67v343h-67v67h199z" />
  </font>
</defs>
</svg>
